<mxfile host="app.diagrams.net" modified="2024-06-01T13:51:55.462Z" agent="Mozilla/5.0 (Windows NT 10.0; Win64; x64) AppleWebKit/537.36 (KHTML, like Gecko) Chrome/125.0.0.0 Safari/537.36" etag="z0eCI_Wv8AkVbgGtAydz" version="24.4.13" type="github" pages="7">
  <diagram id="RS0IInAc47nS72wOJ4d3" name="Class Diagram">
    <mxGraphModel dx="2163" dy="1753" grid="1" gridSize="10" guides="1" tooltips="1" connect="1" arrows="1" fold="1" page="1" pageScale="1" pageWidth="850" pageHeight="1100" math="0" shadow="0">
      <root>
        <mxCell id="0" />
        <mxCell id="1" parent="0" />
        <mxCell id="VEcuUXsGFm6bJ6xh-HqN-4" value="USER" style="swimlane;fontStyle=3;align=center;verticalAlign=top;childLayout=stackLayout;horizontal=1;startSize=26;horizontalStack=0;resizeParent=1;resizeLast=0;collapsible=1;marginBottom=0;rounded=0;shadow=0;strokeWidth=1;" vertex="1" parent="1">
          <mxGeometry x="105" y="-10" width="160" height="112" as="geometry">
            <mxRectangle x="230" y="140" width="160" height="26" as="alternateBounds" />
          </mxGeometry>
        </mxCell>
        <mxCell id="VEcuUXsGFm6bJ6xh-HqN-49" value="+ name: char" style="text;align=left;verticalAlign=top;spacingLeft=4;spacingRight=4;overflow=hidden;rotatable=0;points=[[0,0.5],[1,0.5]];portConstraint=eastwest;rounded=0;shadow=0;html=0;" vertex="1" parent="VEcuUXsGFm6bJ6xh-HqN-4">
          <mxGeometry y="26" width="160" height="26" as="geometry" />
        </mxCell>
        <mxCell id="VEcuUXsGFm6bJ6xh-HqN-12" value="+ email: char" style="text;align=left;verticalAlign=top;spacingLeft=4;spacingRight=4;overflow=hidden;rotatable=0;points=[[0,0.5],[1,0.5]];portConstraint=eastwest;rounded=0;shadow=0;html=0;" vertex="1" parent="VEcuUXsGFm6bJ6xh-HqN-4">
          <mxGeometry y="52" width="160" height="26" as="geometry" />
        </mxCell>
        <mxCell id="VEcuUXsGFm6bJ6xh-HqN-8" value="" style="line;html=1;strokeWidth=1;align=left;verticalAlign=middle;spacingTop=-1;spacingLeft=3;spacingRight=3;rotatable=0;labelPosition=right;points=[];portConstraint=eastwest;" vertex="1" parent="VEcuUXsGFm6bJ6xh-HqN-4">
          <mxGeometry y="78" width="160" height="8" as="geometry" />
        </mxCell>
        <mxCell id="svKOczBc78RgEJxA4-Ky-20" value="+ getter/setter..." style="text;align=left;verticalAlign=top;spacingLeft=4;spacingRight=4;overflow=hidden;rotatable=0;points=[[0,0.5],[1,0.5]];portConstraint=eastwest;" vertex="1" parent="VEcuUXsGFm6bJ6xh-HqN-4">
          <mxGeometry y="86" width="160" height="26" as="geometry" />
        </mxCell>
        <mxCell id="VEcuUXsGFm6bJ6xh-HqN-79" style="edgeStyle=orthogonalEdgeStyle;rounded=0;orthogonalLoop=1;jettySize=auto;html=1;" edge="1" parent="1" source="VEcuUXsGFm6bJ6xh-HqN-10" target="VEcuUXsGFm6bJ6xh-HqN-54">
          <mxGeometry relative="1" as="geometry">
            <Array as="points">
              <mxPoint x="110" y="440" />
            </Array>
          </mxGeometry>
        </mxCell>
        <mxCell id="VEcuUXsGFm6bJ6xh-HqN-91" value="1" style="edgeLabel;html=1;align=center;verticalAlign=middle;resizable=0;points=[];" vertex="1" connectable="0" parent="VEcuUXsGFm6bJ6xh-HqN-79">
          <mxGeometry x="-0.8796" y="3" relative="1" as="geometry">
            <mxPoint y="13" as="offset" />
          </mxGeometry>
        </mxCell>
        <mxCell id="VEcuUXsGFm6bJ6xh-HqN-93" value="many" style="edgeLabel;html=1;align=center;verticalAlign=middle;resizable=0;points=[];" vertex="1" connectable="0" parent="VEcuUXsGFm6bJ6xh-HqN-79">
          <mxGeometry x="0.7858" y="-2" relative="1" as="geometry">
            <mxPoint as="offset" />
          </mxGeometry>
        </mxCell>
        <mxCell id="VEcuUXsGFm6bJ6xh-HqN-82" style="edgeStyle=orthogonalEdgeStyle;rounded=0;orthogonalLoop=1;jettySize=auto;html=1;" edge="1" parent="1" source="VEcuUXsGFm6bJ6xh-HqN-10" target="VEcuUXsGFm6bJ6xh-HqN-74">
          <mxGeometry relative="1" as="geometry">
            <Array as="points">
              <mxPoint x="90" y="540" />
              <mxPoint x="605" y="540" />
            </Array>
          </mxGeometry>
        </mxCell>
        <mxCell id="VEcuUXsGFm6bJ6xh-HqN-92" value="1" style="edgeLabel;html=1;align=center;verticalAlign=middle;resizable=0;points=[];" vertex="1" connectable="0" parent="VEcuUXsGFm6bJ6xh-HqN-82">
          <mxGeometry x="-0.9251" y="-1" relative="1" as="geometry">
            <mxPoint as="offset" />
          </mxGeometry>
        </mxCell>
        <mxCell id="VEcuUXsGFm6bJ6xh-HqN-94" value="Many" style="edgeLabel;html=1;align=center;verticalAlign=middle;resizable=0;points=[];" vertex="1" connectable="0" parent="VEcuUXsGFm6bJ6xh-HqN-82">
          <mxGeometry x="0.8605" y="4" relative="1" as="geometry">
            <mxPoint y="-21" as="offset" />
          </mxGeometry>
        </mxCell>
        <mxCell id="EmZja5cp8QFj4exmmmN4-24" style="edgeStyle=orthogonalEdgeStyle;rounded=0;orthogonalLoop=1;jettySize=auto;html=1;" edge="1" parent="1" target="VEcuUXsGFm6bJ6xh-HqN-34">
          <mxGeometry relative="1" as="geometry">
            <mxPoint x="210" y="310" as="sourcePoint" />
            <mxPoint x="740" y="220" as="targetPoint" />
            <Array as="points">
              <mxPoint x="740" y="310" />
            </Array>
          </mxGeometry>
        </mxCell>
        <mxCell id="EmZja5cp8QFj4exmmmN4-25" value="1" style="edgeLabel;html=1;align=center;verticalAlign=middle;resizable=0;points=[];" vertex="1" connectable="0" parent="EmZja5cp8QFj4exmmmN4-24">
          <mxGeometry x="-0.9423" relative="1" as="geometry">
            <mxPoint as="offset" />
          </mxGeometry>
        </mxCell>
        <mxCell id="EmZja5cp8QFj4exmmmN4-26" value="Many" style="edgeLabel;html=1;align=center;verticalAlign=middle;resizable=0;points=[];" vertex="1" connectable="0" parent="EmZja5cp8QFj4exmmmN4-24">
          <mxGeometry x="0.9298" relative="1" as="geometry">
            <mxPoint as="offset" />
          </mxGeometry>
        </mxCell>
        <mxCell id="EmZja5cp8QFj4exmmmN4-27" value="Owner" style="edgeLabel;html=1;align=center;verticalAlign=middle;resizable=0;points=[];" vertex="1" connectable="0" parent="EmZja5cp8QFj4exmmmN4-24">
          <mxGeometry x="0.1364" y="1" relative="1" as="geometry">
            <mxPoint as="offset" />
          </mxGeometry>
        </mxCell>
        <mxCell id="VEcuUXsGFm6bJ6xh-HqN-10" value="PROJECT MANAGER" style="swimlane;fontStyle=1;align=center;verticalAlign=top;childLayout=stackLayout;horizontal=1;startSize=26;horizontalStack=0;resizeParent=1;resizeLast=0;collapsible=1;marginBottom=0;rounded=0;shadow=0;strokeWidth=1;" vertex="1" parent="1">
          <mxGeometry x="-10" y="170" width="210" height="216" as="geometry">
            <mxRectangle x="20" y="260" width="160" height="26" as="alternateBounds" />
          </mxGeometry>
        </mxCell>
        <mxCell id="VEcuUXsGFm6bJ6xh-HqN-113" value="" style="line;html=1;strokeWidth=1;align=left;verticalAlign=middle;spacingTop=-1;spacingLeft=3;spacingRight=3;rotatable=0;labelPosition=right;points=[];portConstraint=eastwest;" vertex="1" parent="VEcuUXsGFm6bJ6xh-HqN-10">
          <mxGeometry y="26" width="210" height="8" as="geometry" />
        </mxCell>
        <mxCell id="VEcuUXsGFm6bJ6xh-HqN-114" value="+ createMilestone(): Milestone" style="text;align=left;verticalAlign=top;spacingLeft=4;spacingRight=4;overflow=hidden;rotatable=0;points=[[0,0.5],[1,0.5]];portConstraint=eastwest;rounded=0;shadow=0;html=0;" vertex="1" parent="VEcuUXsGFm6bJ6xh-HqN-10">
          <mxGeometry y="34" width="210" height="26" as="geometry" />
        </mxCell>
        <mxCell id="VEcuUXsGFm6bJ6xh-HqN-14" value="+ edit(Milestone): Milestone" style="text;align=left;verticalAlign=top;spacingLeft=4;spacingRight=4;overflow=hidden;rotatable=0;points=[[0,0.5],[1,0.5]];portConstraint=eastwest;fontStyle=0" vertex="1" parent="VEcuUXsGFm6bJ6xh-HqN-10">
          <mxGeometry y="60" width="210" height="26" as="geometry" />
        </mxCell>
        <mxCell id="VEcuUXsGFm6bJ6xh-HqN-115" value="+ deactiveate(Milestone): Milestone" style="text;align=left;verticalAlign=top;spacingLeft=4;spacingRight=4;overflow=hidden;rotatable=0;points=[[0,0.5],[1,0.5]];portConstraint=eastwest;rounded=0;shadow=0;html=0;" vertex="1" parent="VEcuUXsGFm6bJ6xh-HqN-10">
          <mxGeometry y="86" width="210" height="26" as="geometry" />
        </mxCell>
        <mxCell id="EmZja5cp8QFj4exmmmN4-21" value="+ activate(Milestone): Milestone" style="text;align=left;verticalAlign=top;spacingLeft=4;spacingRight=4;overflow=hidden;rotatable=0;points=[[0,0.5],[1,0.5]];portConstraint=eastwest;rounded=0;shadow=0;html=0;" vertex="1" parent="VEcuUXsGFm6bJ6xh-HqN-10">
          <mxGeometry y="112" width="210" height="26" as="geometry" />
        </mxCell>
        <mxCell id="VEcuUXsGFm6bJ6xh-HqN-16" value="" style="endArrow=block;endSize=10;endFill=0;shadow=0;strokeWidth=1;rounded=0;curved=0;edgeStyle=elbowEdgeStyle;elbow=vertical;exitX=0.5;exitY=0;exitDx=0;exitDy=0;" edge="1" parent="1" source="VEcuUXsGFm6bJ6xh-HqN-10">
          <mxGeometry width="160" relative="1" as="geometry">
            <mxPoint x="60" y="246" as="sourcePoint" />
            <mxPoint x="185" y="100" as="targetPoint" />
          </mxGeometry>
        </mxCell>
        <mxCell id="VEcuUXsGFm6bJ6xh-HqN-84" style="edgeStyle=orthogonalEdgeStyle;rounded=0;orthogonalLoop=1;jettySize=auto;html=1;" edge="1" parent="1" source="VEcuUXsGFm6bJ6xh-HqN-17" target="VEcuUXsGFm6bJ6xh-HqN-71">
          <mxGeometry relative="1" as="geometry">
            <Array as="points">
              <mxPoint x="540" y="250" />
            </Array>
          </mxGeometry>
        </mxCell>
        <mxCell id="VEcuUXsGFm6bJ6xh-HqN-89" value="1" style="edgeLabel;html=1;align=center;verticalAlign=middle;resizable=0;points=[];" vertex="1" connectable="0" parent="VEcuUXsGFm6bJ6xh-HqN-84">
          <mxGeometry x="-0.9512" y="-1" relative="1" as="geometry">
            <mxPoint as="offset" />
          </mxGeometry>
        </mxCell>
        <mxCell id="VEcuUXsGFm6bJ6xh-HqN-90" value="Many" style="edgeLabel;html=1;align=center;verticalAlign=middle;resizable=0;points=[];" vertex="1" connectable="0" parent="VEcuUXsGFm6bJ6xh-HqN-84">
          <mxGeometry x="0.9198" y="-1" relative="1" as="geometry">
            <mxPoint y="28" as="offset" />
          </mxGeometry>
        </mxCell>
        <mxCell id="VEcuUXsGFm6bJ6xh-HqN-17" value="STAFF" style="swimlane;fontStyle=1;align=center;verticalAlign=top;childLayout=stackLayout;horizontal=1;startSize=30;horizontalStack=0;resizeParent=1;resizeLast=0;collapsible=1;marginBottom=0;rounded=0;shadow=0;strokeWidth=1;" vertex="1" parent="1">
          <mxGeometry x="240" y="170" width="230" height="116" as="geometry">
            <mxRectangle x="340" y="380" width="170" height="26" as="alternateBounds" />
          </mxGeometry>
        </mxCell>
        <mxCell id="VEcuUXsGFm6bJ6xh-HqN-19" value="" style="line;html=1;strokeWidth=1;align=left;verticalAlign=middle;spacingTop=-1;spacingLeft=3;spacingRight=3;rotatable=0;labelPosition=right;points=[];portConstraint=eastwest;" vertex="1" parent="VEcuUXsGFm6bJ6xh-HqN-17">
          <mxGeometry y="30" width="230" height="8" as="geometry" />
        </mxCell>
        <mxCell id="VEcuUXsGFm6bJ6xh-HqN-52" value="+ updateProgress(Milestone): Milestone" style="text;align=left;verticalAlign=top;spacingLeft=4;spacingRight=4;overflow=hidden;rotatable=0;points=[[0,0.5],[1,0.5]];portConstraint=eastwest;" vertex="1" parent="VEcuUXsGFm6bJ6xh-HqN-17">
          <mxGeometry y="38" width="230" height="26" as="geometry" />
        </mxCell>
        <mxCell id="VEcuUXsGFm6bJ6xh-HqN-20" value="" style="endArrow=block;endSize=10;endFill=0;shadow=0;strokeWidth=1;rounded=0;curved=0;edgeStyle=elbowEdgeStyle;elbow=vertical;" edge="1" parent="1" source="VEcuUXsGFm6bJ6xh-HqN-17">
          <mxGeometry width="160" relative="1" as="geometry">
            <mxPoint x="411.64" y="222" as="sourcePoint" />
            <mxPoint x="190" y="100" as="targetPoint" />
            <Array as="points">
              <mxPoint x="190" y="130" />
              <mxPoint x="301.64" y="182" />
            </Array>
          </mxGeometry>
        </mxCell>
        <mxCell id="VEcuUXsGFm6bJ6xh-HqN-80" style="edgeStyle=orthogonalEdgeStyle;rounded=0;orthogonalLoop=1;jettySize=auto;html=1;" edge="1" parent="1" source="VEcuUXsGFm6bJ6xh-HqN-34" target="VEcuUXsGFm6bJ6xh-HqN-54">
          <mxGeometry relative="1" as="geometry">
            <Array as="points">
              <mxPoint x="770" y="360" />
            </Array>
          </mxGeometry>
        </mxCell>
        <mxCell id="VEcuUXsGFm6bJ6xh-HqN-121" value="1" style="edgeLabel;html=1;align=center;verticalAlign=middle;resizable=0;points=[];" vertex="1" connectable="0" parent="VEcuUXsGFm6bJ6xh-HqN-80">
          <mxGeometry x="-0.91" y="-3" relative="1" as="geometry">
            <mxPoint as="offset" />
          </mxGeometry>
        </mxCell>
        <mxCell id="VEcuUXsGFm6bJ6xh-HqN-122" value="many" style="edgeLabel;html=1;align=center;verticalAlign=middle;resizable=0;points=[];" vertex="1" connectable="0" parent="VEcuUXsGFm6bJ6xh-HqN-80">
          <mxGeometry x="0.8758" y="3" relative="1" as="geometry">
            <mxPoint as="offset" />
          </mxGeometry>
        </mxCell>
        <mxCell id="VEcuUXsGFm6bJ6xh-HqN-83" style="edgeStyle=orthogonalEdgeStyle;rounded=0;orthogonalLoop=1;jettySize=auto;html=1;" edge="1" parent="1" source="VEcuUXsGFm6bJ6xh-HqN-34" target="VEcuUXsGFm6bJ6xh-HqN-74">
          <mxGeometry relative="1" as="geometry">
            <mxPoint x="800.0434782608697" y="369.9999999999998" as="sourcePoint" />
            <mxPoint x="530" y="642" as="targetPoint" />
            <Array as="points">
              <mxPoint x="800" y="540" />
              <mxPoint x="650" y="540" />
            </Array>
          </mxGeometry>
        </mxCell>
        <mxCell id="VEcuUXsGFm6bJ6xh-HqN-111" value="1" style="edgeLabel;html=1;align=center;verticalAlign=middle;resizable=0;points=[];" vertex="1" connectable="0" parent="VEcuUXsGFm6bJ6xh-HqN-83">
          <mxGeometry x="-0.9362" y="-1" relative="1" as="geometry">
            <mxPoint as="offset" />
          </mxGeometry>
        </mxCell>
        <mxCell id="VEcuUXsGFm6bJ6xh-HqN-112" value="Many" style="edgeLabel;html=1;align=center;verticalAlign=middle;resizable=0;points=[];" vertex="1" connectable="0" parent="VEcuUXsGFm6bJ6xh-HqN-83">
          <mxGeometry x="0.8947" relative="1" as="geometry">
            <mxPoint y="5" as="offset" />
          </mxGeometry>
        </mxCell>
        <mxCell id="VEcuUXsGFm6bJ6xh-HqN-117" style="edgeStyle=orthogonalEdgeStyle;rounded=0;orthogonalLoop=1;jettySize=auto;html=1;" edge="1" parent="1" source="VEcuUXsGFm6bJ6xh-HqN-34" target="VEcuUXsGFm6bJ6xh-HqN-71">
          <mxGeometry relative="1" as="geometry">
            <Array as="points">
              <mxPoint x="570" y="250" />
            </Array>
          </mxGeometry>
        </mxCell>
        <mxCell id="VEcuUXsGFm6bJ6xh-HqN-119" value="1" style="edgeLabel;html=1;align=center;verticalAlign=middle;resizable=0;points=[];" vertex="1" connectable="0" parent="VEcuUXsGFm6bJ6xh-HqN-117">
          <mxGeometry x="-0.76" y="-3" relative="1" as="geometry">
            <mxPoint y="-7" as="offset" />
          </mxGeometry>
        </mxCell>
        <mxCell id="VEcuUXsGFm6bJ6xh-HqN-120" value="Many" style="edgeLabel;html=1;align=center;verticalAlign=middle;resizable=0;points=[];" vertex="1" connectable="0" parent="VEcuUXsGFm6bJ6xh-HqN-117">
          <mxGeometry x="0.7675" y="-3" relative="1" as="geometry">
            <mxPoint y="17" as="offset" />
          </mxGeometry>
        </mxCell>
        <mxCell id="VEcuUXsGFm6bJ6xh-HqN-34" value="MILESTONE" style="swimlane;fontStyle=3;align=center;verticalAlign=top;childLayout=stackLayout;horizontal=1;startSize=26;horizontalStack=0;resizeParent=1;resizeLast=0;collapsible=1;marginBottom=0;rounded=0;shadow=0;strokeWidth=1;" vertex="1" parent="1">
          <mxGeometry x="660" y="34" width="160" height="226" as="geometry">
            <mxRectangle x="230" y="140" width="160" height="26" as="alternateBounds" />
          </mxGeometry>
        </mxCell>
        <mxCell id="VEcuUXsGFm6bJ6xh-HqN-116" value="+ createdTime: datetime" style="text;align=left;verticalAlign=top;spacingLeft=4;spacingRight=4;overflow=hidden;rotatable=0;points=[[0,0.5],[1,0.5]];portConstraint=eastwest;" vertex="1" parent="VEcuUXsGFm6bJ6xh-HqN-34">
          <mxGeometry y="26" width="160" height="26" as="geometry" />
        </mxCell>
        <mxCell id="VEcuUXsGFm6bJ6xh-HqN-67" value="+ title: string" style="text;align=left;verticalAlign=top;spacingLeft=4;spacingRight=4;overflow=hidden;rotatable=0;points=[[0,0.5],[1,0.5]];portConstraint=eastwest;" vertex="1" parent="VEcuUXsGFm6bJ6xh-HqN-34">
          <mxGeometry y="52" width="160" height="26" as="geometry" />
        </mxCell>
        <mxCell id="VEcuUXsGFm6bJ6xh-HqN-70" value="+ description: string" style="text;align=left;verticalAlign=top;spacingLeft=4;spacingRight=4;overflow=hidden;rotatable=0;points=[[0,0.5],[1,0.5]];portConstraint=eastwest;" vertex="1" parent="VEcuUXsGFm6bJ6xh-HqN-34">
          <mxGeometry y="78" width="160" height="26" as="geometry" />
        </mxCell>
        <mxCell id="VEcuUXsGFm6bJ6xh-HqN-69" value="+ startDate: datetime" style="text;align=left;verticalAlign=top;spacingLeft=4;spacingRight=4;overflow=hidden;rotatable=0;points=[[0,0.5],[1,0.5]];portConstraint=eastwest;" vertex="1" parent="VEcuUXsGFm6bJ6xh-HqN-34">
          <mxGeometry y="104" width="160" height="26" as="geometry" />
        </mxCell>
        <mxCell id="VEcuUXsGFm6bJ6xh-HqN-68" value="+ dueDate: datetime" style="text;align=left;verticalAlign=top;spacingLeft=4;spacingRight=4;overflow=hidden;rotatable=0;points=[[0,0.5],[1,0.5]];portConstraint=eastwest;" vertex="1" parent="VEcuUXsGFm6bJ6xh-HqN-34">
          <mxGeometry y="130" width="160" height="26" as="geometry" />
        </mxCell>
        <mxCell id="svKOczBc78RgEJxA4-Ky-21" value="+ owner: User" style="text;align=left;verticalAlign=top;spacingLeft=4;spacingRight=4;overflow=hidden;rotatable=0;points=[[0,0.5],[1,0.5]];portConstraint=eastwest;" vertex="1" parent="VEcuUXsGFm6bJ6xh-HqN-34">
          <mxGeometry y="156" width="160" height="26" as="geometry" />
        </mxCell>
        <mxCell id="VEcuUXsGFm6bJ6xh-HqN-38" value="" style="line;html=1;strokeWidth=1;align=left;verticalAlign=middle;spacingTop=-1;spacingLeft=3;spacingRight=3;rotatable=0;labelPosition=right;points=[];portConstraint=eastwest;" vertex="1" parent="VEcuUXsGFm6bJ6xh-HqN-34">
          <mxGeometry y="182" width="160" height="8" as="geometry" />
        </mxCell>
        <mxCell id="svKOczBc78RgEJxA4-Ky-17" value="+ getter/setter..." style="text;align=left;verticalAlign=top;spacingLeft=4;spacingRight=4;overflow=hidden;rotatable=0;points=[[0,0.5],[1,0.5]];portConstraint=eastwest;" vertex="1" parent="VEcuUXsGFm6bJ6xh-HqN-34">
          <mxGeometry y="190" width="160" height="26" as="geometry" />
        </mxCell>
        <mxCell id="VEcuUXsGFm6bJ6xh-HqN-54" value="EditMilestone" style="swimlane;fontStyle=0;align=center;verticalAlign=top;childLayout=stackLayout;horizontal=1;startSize=26;horizontalStack=0;resizeParent=1;resizeLast=0;collapsible=1;marginBottom=0;rounded=0;shadow=0;strokeWidth=1;" vertex="1" parent="1">
          <mxGeometry x="240" y="330" width="210" height="190" as="geometry">
            <mxRectangle x="340" y="380" width="170" height="26" as="alternateBounds" />
          </mxGeometry>
        </mxCell>
        <mxCell id="VEcuUXsGFm6bJ6xh-HqN-96" value="+ editedDate: datetime" style="text;align=left;verticalAlign=top;spacingLeft=4;spacingRight=4;overflow=hidden;rotatable=0;points=[[0,0.5],[1,0.5]];portConstraint=eastwest;" vertex="1" parent="VEcuUXsGFm6bJ6xh-HqN-54">
          <mxGeometry y="26" width="210" height="26" as="geometry" />
        </mxCell>
        <mxCell id="VEcuUXsGFm6bJ6xh-HqN-97" value="+ editedTitle: string" style="text;align=left;verticalAlign=top;spacingLeft=4;spacingRight=4;overflow=hidden;rotatable=0;points=[[0,0.5],[1,0.5]];portConstraint=eastwest;" vertex="1" parent="VEcuUXsGFm6bJ6xh-HqN-54">
          <mxGeometry y="52" width="210" height="26" as="geometry" />
        </mxCell>
        <mxCell id="VEcuUXsGFm6bJ6xh-HqN-55" value="+ editedDescription: string" style="text;align=left;verticalAlign=top;spacingLeft=4;spacingRight=4;overflow=hidden;rotatable=0;points=[[0,0.5],[1,0.5]];portConstraint=eastwest;" vertex="1" parent="VEcuUXsGFm6bJ6xh-HqN-54">
          <mxGeometry y="78" width="210" height="26" as="geometry" />
        </mxCell>
        <mxCell id="VEcuUXsGFm6bJ6xh-HqN-105" value="+ editedStartDate: datetime" style="text;align=left;verticalAlign=top;spacingLeft=4;spacingRight=4;overflow=hidden;rotatable=0;points=[[0,0.5],[1,0.5]];portConstraint=eastwest;" vertex="1" parent="VEcuUXsGFm6bJ6xh-HqN-54">
          <mxGeometry y="104" width="210" height="26" as="geometry" />
        </mxCell>
        <mxCell id="VEcuUXsGFm6bJ6xh-HqN-98" value="+ editedDueDate: datetime" style="text;align=left;verticalAlign=top;spacingLeft=4;spacingRight=4;overflow=hidden;rotatable=0;points=[[0,0.5],[1,0.5]];portConstraint=eastwest;" vertex="1" parent="VEcuUXsGFm6bJ6xh-HqN-54">
          <mxGeometry y="130" width="210" height="26" as="geometry" />
        </mxCell>
        <mxCell id="VEcuUXsGFm6bJ6xh-HqN-56" value="" style="line;html=1;strokeWidth=1;align=left;verticalAlign=middle;spacingTop=-1;spacingLeft=3;spacingRight=3;rotatable=0;labelPosition=right;points=[];portConstraint=eastwest;" vertex="1" parent="VEcuUXsGFm6bJ6xh-HqN-54">
          <mxGeometry y="156" width="210" height="8" as="geometry" />
        </mxCell>
        <mxCell id="svKOczBc78RgEJxA4-Ky-18" value="+ getter/setter ..." style="text;align=left;verticalAlign=top;spacingLeft=4;spacingRight=4;overflow=hidden;rotatable=0;points=[[0,0.5],[1,0.5]];portConstraint=eastwest;" vertex="1" parent="VEcuUXsGFm6bJ6xh-HqN-54">
          <mxGeometry y="164" width="210" height="26" as="geometry" />
        </mxCell>
        <mxCell id="VEcuUXsGFm6bJ6xh-HqN-71" value="UpdateProgressMilestone" style="swimlane;fontStyle=0;align=center;verticalAlign=top;childLayout=stackLayout;horizontal=1;startSize=26;horizontalStack=0;resizeParent=1;resizeLast=0;collapsible=1;marginBottom=0;rounded=0;shadow=0;strokeWidth=1;" vertex="1" parent="1">
          <mxGeometry x="400" y="10" width="220" height="150" as="geometry">
            <mxRectangle x="340" y="380" width="170" height="26" as="alternateBounds" />
          </mxGeometry>
        </mxCell>
        <mxCell id="VEcuUXsGFm6bJ6xh-HqN-72" value="+ updatedProgress: float" style="text;align=left;verticalAlign=top;spacingLeft=4;spacingRight=4;overflow=hidden;rotatable=0;points=[[0,0.5],[1,0.5]];portConstraint=eastwest;" vertex="1" parent="VEcuUXsGFm6bJ6xh-HqN-71">
          <mxGeometry y="26" width="220" height="26" as="geometry" />
        </mxCell>
        <mxCell id="VEcuUXsGFm6bJ6xh-HqN-108" value="+ updatedTime: datetime" style="text;align=left;verticalAlign=top;spacingLeft=4;spacingRight=4;overflow=hidden;rotatable=0;points=[[0,0.5],[1,0.5]];portConstraint=eastwest;" vertex="1" parent="VEcuUXsGFm6bJ6xh-HqN-71">
          <mxGeometry y="52" width="220" height="26" as="geometry" />
        </mxCell>
        <mxCell id="svKOczBc78RgEJxA4-Ky-19" value="+ updatedUser: User" style="text;align=left;verticalAlign=top;spacingLeft=4;spacingRight=4;overflow=hidden;rotatable=0;points=[[0,0.5],[1,0.5]];portConstraint=eastwest;" vertex="1" parent="VEcuUXsGFm6bJ6xh-HqN-71">
          <mxGeometry y="78" width="220" height="26" as="geometry" />
        </mxCell>
        <mxCell id="VEcuUXsGFm6bJ6xh-HqN-73" value="" style="line;html=1;strokeWidth=1;align=left;verticalAlign=middle;spacingTop=-1;spacingLeft=3;spacingRight=3;rotatable=0;labelPosition=right;points=[];portConstraint=eastwest;" vertex="1" parent="VEcuUXsGFm6bJ6xh-HqN-71">
          <mxGeometry y="104" width="220" height="8" as="geometry" />
        </mxCell>
        <mxCell id="EmZja5cp8QFj4exmmmN4-52" value="+ getter/setter..." style="text;align=left;verticalAlign=top;spacingLeft=4;spacingRight=4;overflow=hidden;rotatable=0;points=[[0,0.5],[1,0.5]];portConstraint=eastwest;" vertex="1" parent="VEcuUXsGFm6bJ6xh-HqN-71">
          <mxGeometry y="112" width="220" height="26" as="geometry" />
        </mxCell>
        <mxCell id="VEcuUXsGFm6bJ6xh-HqN-74" value="CloseMilestone" style="swimlane;fontStyle=0;align=center;verticalAlign=top;childLayout=stackLayout;horizontal=1;startSize=26;horizontalStack=0;resizeParent=1;resizeLast=0;collapsible=1;marginBottom=0;rounded=0;shadow=0;strokeWidth=1;" vertex="1" parent="1">
          <mxGeometry x="510" y="380" width="210" height="138" as="geometry">
            <mxRectangle x="340" y="380" width="170" height="26" as="alternateBounds" />
          </mxGeometry>
        </mxCell>
        <mxCell id="VEcuUXsGFm6bJ6xh-HqN-75" value="+ closed: bool" style="text;align=left;verticalAlign=top;spacingLeft=4;spacingRight=4;overflow=hidden;rotatable=0;points=[[0,0.5],[1,0.5]];portConstraint=eastwest;" vertex="1" parent="VEcuUXsGFm6bJ6xh-HqN-74">
          <mxGeometry y="26" width="210" height="26" as="geometry" />
        </mxCell>
        <mxCell id="VEcuUXsGFm6bJ6xh-HqN-95" value="+ closedDate: timestamp" style="text;align=left;verticalAlign=top;spacingLeft=4;spacingRight=4;overflow=hidden;rotatable=0;points=[[0,0.5],[1,0.5]];portConstraint=eastwest;" vertex="1" parent="VEcuUXsGFm6bJ6xh-HqN-74">
          <mxGeometry y="52" width="210" height="26" as="geometry" />
        </mxCell>
        <mxCell id="VEcuUXsGFm6bJ6xh-HqN-76" value="" style="line;html=1;strokeWidth=1;align=left;verticalAlign=middle;spacingTop=-1;spacingLeft=3;spacingRight=3;rotatable=0;labelPosition=right;points=[];portConstraint=eastwest;" vertex="1" parent="VEcuUXsGFm6bJ6xh-HqN-74">
          <mxGeometry y="78" width="210" height="8" as="geometry" />
        </mxCell>
        <mxCell id="EmZja5cp8QFj4exmmmN4-56" value="+ getter/setter ..." style="text;align=left;verticalAlign=top;spacingLeft=4;spacingRight=4;overflow=hidden;rotatable=0;points=[[0,0.5],[1,0.5]];portConstraint=eastwest;" vertex="1" parent="VEcuUXsGFm6bJ6xh-HqN-74">
          <mxGeometry y="86" width="210" height="26" as="geometry" />
        </mxCell>
      </root>
    </mxGraphModel>
  </diagram>
  <diagram id="4W7Ldy8OGj4T3v3FS39m" name="ERD">
    <mxGraphModel dx="1500" dy="1846" grid="1" gridSize="10" guides="1" tooltips="1" connect="1" arrows="1" fold="1" page="1" pageScale="1" pageWidth="850" pageHeight="1100" math="0" shadow="0">
      <root>
        <mxCell id="0" />
        <mxCell id="1" parent="0" />
        <mxCell id="PZKsr74rgdb9UytkWlQ8-3" value="Milestone" style="shape=table;startSize=30;container=1;collapsible=1;childLayout=tableLayout;fixedRows=1;rowLines=0;fontStyle=1;align=center;resizeLast=1;" vertex="1" parent="1">
          <mxGeometry x="580" width="250" height="250" as="geometry" />
        </mxCell>
        <mxCell id="PZKsr74rgdb9UytkWlQ8-4" value="" style="shape=partialRectangle;collapsible=0;dropTarget=0;pointerEvents=0;fillColor=none;points=[[0,0.5],[1,0.5]];portConstraint=eastwest;top=0;left=0;right=0;bottom=1;" vertex="1" parent="PZKsr74rgdb9UytkWlQ8-3">
          <mxGeometry y="30" width="250" height="30" as="geometry" />
        </mxCell>
        <mxCell id="PZKsr74rgdb9UytkWlQ8-5" value="PK" style="shape=partialRectangle;overflow=hidden;connectable=0;fillColor=none;top=0;left=0;bottom=0;right=0;fontStyle=1;" vertex="1" parent="PZKsr74rgdb9UytkWlQ8-4">
          <mxGeometry width="30" height="30" as="geometry">
            <mxRectangle width="30" height="30" as="alternateBounds" />
          </mxGeometry>
        </mxCell>
        <mxCell id="PZKsr74rgdb9UytkWlQ8-6" value="milestone_id char(200) NOT NULL " style="shape=partialRectangle;overflow=hidden;connectable=0;fillColor=none;top=0;left=0;bottom=0;right=0;align=left;spacingLeft=6;fontStyle=5;" vertex="1" parent="PZKsr74rgdb9UytkWlQ8-4">
          <mxGeometry x="30" width="220" height="30" as="geometry">
            <mxRectangle width="220" height="30" as="alternateBounds" />
          </mxGeometry>
        </mxCell>
        <mxCell id="PZKsr74rgdb9UytkWlQ8-7" value="" style="shape=partialRectangle;collapsible=0;dropTarget=0;pointerEvents=0;fillColor=none;points=[[0,0.5],[1,0.5]];portConstraint=eastwest;top=0;left=0;right=0;bottom=0;" vertex="1" parent="PZKsr74rgdb9UytkWlQ8-3">
          <mxGeometry y="60" width="250" height="30" as="geometry" />
        </mxCell>
        <mxCell id="PZKsr74rgdb9UytkWlQ8-8" value="FK1" style="shape=partialRectangle;overflow=hidden;connectable=0;fillColor=none;top=0;left=0;bottom=0;right=0;" vertex="1" parent="PZKsr74rgdb9UytkWlQ8-7">
          <mxGeometry width="30" height="30" as="geometry">
            <mxRectangle width="30" height="30" as="alternateBounds" />
          </mxGeometry>
        </mxCell>
        <mxCell id="PZKsr74rgdb9UytkWlQ8-9" value="user_id char(200) NOT NULL" style="shape=partialRectangle;overflow=hidden;connectable=0;fillColor=none;top=0;left=0;bottom=0;right=0;align=left;spacingLeft=6;" vertex="1" parent="PZKsr74rgdb9UytkWlQ8-7">
          <mxGeometry x="30" width="220" height="30" as="geometry">
            <mxRectangle width="220" height="30" as="alternateBounds" />
          </mxGeometry>
        </mxCell>
        <mxCell id="PZKsr74rgdb9UytkWlQ8-10" value="" style="shape=partialRectangle;collapsible=0;dropTarget=0;pointerEvents=0;fillColor=none;points=[[0,0.5],[1,0.5]];portConstraint=eastwest;top=0;left=0;right=0;bottom=0;" vertex="1" parent="PZKsr74rgdb9UytkWlQ8-3">
          <mxGeometry y="90" width="250" height="30" as="geometry" />
        </mxCell>
        <mxCell id="PZKsr74rgdb9UytkWlQ8-11" value="" style="shape=partialRectangle;overflow=hidden;connectable=0;fillColor=none;top=0;left=0;bottom=0;right=0;" vertex="1" parent="PZKsr74rgdb9UytkWlQ8-10">
          <mxGeometry width="30" height="30" as="geometry">
            <mxRectangle width="30" height="30" as="alternateBounds" />
          </mxGeometry>
        </mxCell>
        <mxCell id="PZKsr74rgdb9UytkWlQ8-12" value="title char(200) NOT NULL" style="shape=partialRectangle;overflow=hidden;connectable=0;fillColor=none;top=0;left=0;bottom=0;right=0;align=left;spacingLeft=6;" vertex="1" parent="PZKsr74rgdb9UytkWlQ8-10">
          <mxGeometry x="30" width="220" height="30" as="geometry">
            <mxRectangle width="220" height="30" as="alternateBounds" />
          </mxGeometry>
        </mxCell>
        <mxCell id="PZKsr74rgdb9UytkWlQ8-13" value="EditMilestone" style="shape=table;startSize=40;container=1;collapsible=1;childLayout=tableLayout;fixedRows=1;rowLines=0;fontStyle=1;align=center;resizeLast=1;" vertex="1" parent="1">
          <mxGeometry x="480" y="-290" width="270" height="260" as="geometry" />
        </mxCell>
        <mxCell id="PZKsr74rgdb9UytkWlQ8-14" value="" style="shape=partialRectangle;collapsible=0;dropTarget=0;pointerEvents=0;fillColor=none;points=[[0,0.5],[1,0.5]];portConstraint=eastwest;top=0;left=0;right=0;bottom=1;" vertex="1" parent="PZKsr74rgdb9UytkWlQ8-13">
          <mxGeometry y="40" width="270" height="30" as="geometry" />
        </mxCell>
        <mxCell id="PZKsr74rgdb9UytkWlQ8-15" value="PK" style="shape=partialRectangle;overflow=hidden;connectable=0;fillColor=none;top=0;left=0;bottom=0;right=0;fontStyle=1;" vertex="1" parent="PZKsr74rgdb9UytkWlQ8-14">
          <mxGeometry width="30" height="30" as="geometry">
            <mxRectangle width="30" height="30" as="alternateBounds" />
          </mxGeometry>
        </mxCell>
        <mxCell id="PZKsr74rgdb9UytkWlQ8-16" value="edit_id char(200) NOT NULL " style="shape=partialRectangle;overflow=hidden;connectable=0;fillColor=none;top=0;left=0;bottom=0;right=0;align=left;spacingLeft=6;fontStyle=5;" vertex="1" parent="PZKsr74rgdb9UytkWlQ8-14">
          <mxGeometry x="30" width="240" height="30" as="geometry">
            <mxRectangle width="240" height="30" as="alternateBounds" />
          </mxGeometry>
        </mxCell>
        <mxCell id="PZKsr74rgdb9UytkWlQ8-17" value="" style="shape=partialRectangle;collapsible=0;dropTarget=0;pointerEvents=0;fillColor=none;points=[[0,0.5],[1,0.5]];portConstraint=eastwest;top=0;left=0;right=0;bottom=0;" vertex="1" parent="PZKsr74rgdb9UytkWlQ8-13">
          <mxGeometry y="70" width="270" height="30" as="geometry" />
        </mxCell>
        <mxCell id="PZKsr74rgdb9UytkWlQ8-18" value="FK1" style="shape=partialRectangle;overflow=hidden;connectable=0;fillColor=none;top=0;left=0;bottom=0;right=0;" vertex="1" parent="PZKsr74rgdb9UytkWlQ8-17">
          <mxGeometry width="30" height="30" as="geometry">
            <mxRectangle width="30" height="30" as="alternateBounds" />
          </mxGeometry>
        </mxCell>
        <mxCell id="PZKsr74rgdb9UytkWlQ8-19" value="milestone_id char(200) NOT NULL" style="shape=partialRectangle;overflow=hidden;connectable=0;fillColor=none;top=0;left=0;bottom=0;right=0;align=left;spacingLeft=6;" vertex="1" parent="PZKsr74rgdb9UytkWlQ8-17">
          <mxGeometry x="30" width="240" height="30" as="geometry">
            <mxRectangle width="240" height="30" as="alternateBounds" />
          </mxGeometry>
        </mxCell>
        <mxCell id="PZKsr74rgdb9UytkWlQ8-20" value="" style="shape=partialRectangle;collapsible=0;dropTarget=0;pointerEvents=0;fillColor=none;points=[[0,0.5],[1,0.5]];portConstraint=eastwest;top=0;left=0;right=0;bottom=0;" vertex="1" parent="PZKsr74rgdb9UytkWlQ8-13">
          <mxGeometry y="100" width="270" height="30" as="geometry" />
        </mxCell>
        <mxCell id="PZKsr74rgdb9UytkWlQ8-21" value="" style="shape=partialRectangle;overflow=hidden;connectable=0;fillColor=none;top=0;left=0;bottom=0;right=0;" vertex="1" parent="PZKsr74rgdb9UytkWlQ8-20">
          <mxGeometry width="30" height="30" as="geometry">
            <mxRectangle width="30" height="30" as="alternateBounds" />
          </mxGeometry>
        </mxCell>
        <mxCell id="PZKsr74rgdb9UytkWlQ8-22" value="" style="shape=partialRectangle;overflow=hidden;connectable=0;fillColor=none;top=0;left=0;bottom=0;right=0;align=left;spacingLeft=6;" vertex="1" parent="PZKsr74rgdb9UytkWlQ8-20">
          <mxGeometry x="30" width="240" height="30" as="geometry">
            <mxRectangle width="240" height="30" as="alternateBounds" />
          </mxGeometry>
        </mxCell>
        <mxCell id="PZKsr74rgdb9UytkWlQ8-30" value="CloseMilestone" style="shape=table;startSize=30;container=1;collapsible=1;childLayout=tableLayout;fixedRows=1;rowLines=0;fontStyle=1;align=center;resizeLast=1;" vertex="1" parent="1">
          <mxGeometry x="60" y="-230" width="250" height="160" as="geometry" />
        </mxCell>
        <mxCell id="PZKsr74rgdb9UytkWlQ8-31" value="" style="shape=partialRectangle;collapsible=0;dropTarget=0;pointerEvents=0;fillColor=none;points=[[0,0.5],[1,0.5]];portConstraint=eastwest;top=0;left=0;right=0;bottom=1;" vertex="1" parent="PZKsr74rgdb9UytkWlQ8-30">
          <mxGeometry y="30" width="250" height="30" as="geometry" />
        </mxCell>
        <mxCell id="PZKsr74rgdb9UytkWlQ8-32" value="PK" style="shape=partialRectangle;overflow=hidden;connectable=0;fillColor=none;top=0;left=0;bottom=0;right=0;fontStyle=1;" vertex="1" parent="PZKsr74rgdb9UytkWlQ8-31">
          <mxGeometry width="30" height="30" as="geometry">
            <mxRectangle width="30" height="30" as="alternateBounds" />
          </mxGeometry>
        </mxCell>
        <mxCell id="PZKsr74rgdb9UytkWlQ8-33" value="close_id char(200) NOT NULL" style="shape=partialRectangle;overflow=hidden;connectable=0;fillColor=none;top=0;left=0;bottom=0;right=0;align=left;spacingLeft=6;fontStyle=5;" vertex="1" parent="PZKsr74rgdb9UytkWlQ8-31">
          <mxGeometry x="30" width="220" height="30" as="geometry">
            <mxRectangle width="220" height="30" as="alternateBounds" />
          </mxGeometry>
        </mxCell>
        <mxCell id="PZKsr74rgdb9UytkWlQ8-34" value="" style="shape=partialRectangle;collapsible=0;dropTarget=0;pointerEvents=0;fillColor=none;points=[[0,0.5],[1,0.5]];portConstraint=eastwest;top=0;left=0;right=0;bottom=0;" vertex="1" parent="PZKsr74rgdb9UytkWlQ8-30">
          <mxGeometry y="60" width="250" height="30" as="geometry" />
        </mxCell>
        <mxCell id="PZKsr74rgdb9UytkWlQ8-35" value="FK1" style="shape=partialRectangle;overflow=hidden;connectable=0;fillColor=none;top=0;left=0;bottom=0;right=0;" vertex="1" parent="PZKsr74rgdb9UytkWlQ8-34">
          <mxGeometry width="30" height="30" as="geometry">
            <mxRectangle width="30" height="30" as="alternateBounds" />
          </mxGeometry>
        </mxCell>
        <mxCell id="PZKsr74rgdb9UytkWlQ8-36" value="milestone_id int NOT NULL" style="shape=partialRectangle;overflow=hidden;connectable=0;fillColor=none;top=0;left=0;bottom=0;right=0;align=left;spacingLeft=6;" vertex="1" parent="PZKsr74rgdb9UytkWlQ8-34">
          <mxGeometry x="30" width="220" height="30" as="geometry">
            <mxRectangle width="220" height="30" as="alternateBounds" />
          </mxGeometry>
        </mxCell>
        <mxCell id="PZKsr74rgdb9UytkWlQ8-37" value="" style="shape=partialRectangle;collapsible=0;dropTarget=0;pointerEvents=0;fillColor=none;points=[[0,0.5],[1,0.5]];portConstraint=eastwest;top=0;left=0;right=0;bottom=0;" vertex="1" parent="PZKsr74rgdb9UytkWlQ8-30">
          <mxGeometry y="90" width="250" height="30" as="geometry" />
        </mxCell>
        <mxCell id="PZKsr74rgdb9UytkWlQ8-38" value="" style="shape=partialRectangle;overflow=hidden;connectable=0;fillColor=none;top=0;left=0;bottom=0;right=0;" vertex="1" parent="PZKsr74rgdb9UytkWlQ8-37">
          <mxGeometry width="30" height="30" as="geometry">
            <mxRectangle width="30" height="30" as="alternateBounds" />
          </mxGeometry>
        </mxCell>
        <mxCell id="PZKsr74rgdb9UytkWlQ8-39" value="is_closed boolean NOT NULL" style="shape=partialRectangle;overflow=hidden;connectable=0;fillColor=none;top=0;left=0;bottom=0;right=0;align=left;spacingLeft=6;" vertex="1" parent="PZKsr74rgdb9UytkWlQ8-37">
          <mxGeometry x="30" width="220" height="30" as="geometry">
            <mxRectangle width="220" height="30" as="alternateBounds" />
          </mxGeometry>
        </mxCell>
        <mxCell id="PZKsr74rgdb9UytkWlQ8-47" value="" style="shape=partialRectangle;collapsible=0;dropTarget=0;pointerEvents=0;fillColor=none;points=[[0,0.5],[1,0.5]];portConstraint=eastwest;top=0;left=0;right=0;bottom=0;" vertex="1" parent="PZKsr74rgdb9UytkWlQ8-30">
          <mxGeometry y="120" width="250" height="30" as="geometry" />
        </mxCell>
        <mxCell id="PZKsr74rgdb9UytkWlQ8-48" value="" style="shape=partialRectangle;overflow=hidden;connectable=0;fillColor=none;top=0;left=0;bottom=0;right=0;" vertex="1" parent="PZKsr74rgdb9UytkWlQ8-47">
          <mxGeometry width="30" height="30" as="geometry">
            <mxRectangle width="30" height="30" as="alternateBounds" />
          </mxGeometry>
        </mxCell>
        <mxCell id="PZKsr74rgdb9UytkWlQ8-49" value="" style="shape=partialRectangle;overflow=hidden;connectable=0;fillColor=none;top=0;left=0;bottom=0;right=0;align=left;spacingLeft=6;" vertex="1" parent="PZKsr74rgdb9UytkWlQ8-47">
          <mxGeometry x="30" width="220" height="30" as="geometry">
            <mxRectangle width="220" height="30" as="alternateBounds" />
          </mxGeometry>
        </mxCell>
        <mxCell id="PZKsr74rgdb9UytkWlQ8-71" value="" style="edgeStyle=entityRelationEdgeStyle;fontSize=12;html=1;endArrow=ERoneToMany;rounded=0;" edge="1" parent="1" source="PZKsr74rgdb9UytkWlQ8-23" target="PZKsr74rgdb9UytkWlQ8-3">
          <mxGeometry width="100" height="100" relative="1" as="geometry">
            <mxPoint x="350" y="130" as="sourcePoint" />
            <mxPoint x="450" y="30" as="targetPoint" />
            <Array as="points">
              <mxPoint x="410" y="-80" />
            </Array>
          </mxGeometry>
        </mxCell>
        <mxCell id="PZKsr74rgdb9UytkWlQ8-74" value="" style="edgeStyle=entityRelationEdgeStyle;fontSize=12;html=1;endArrow=ERoneToMany;rounded=0;exitX=0.5;exitY=0;exitDx=0;exitDy=0;" edge="1" parent="1" source="PZKsr74rgdb9UytkWlQ8-3" target="PZKsr74rgdb9UytkWlQ8-13">
          <mxGeometry width="100" height="100" relative="1" as="geometry">
            <mxPoint x="690" y="-20" as="sourcePoint" />
            <mxPoint x="660" y="-240" as="targetPoint" />
            <Array as="points">
              <mxPoint x="700" y="-310" />
              <mxPoint x="760" y="-110" />
              <mxPoint x="750" y="-110" />
            </Array>
          </mxGeometry>
        </mxCell>
        <mxCell id="PZKsr74rgdb9UytkWlQ8-78" value="" style="edgeStyle=entityRelationEdgeStyle;fontSize=12;html=1;endArrow=ERoneToMany;rounded=0;entryX=0;entryY=0.5;entryDx=0;entryDy=0;exitX=0.5;exitY=1;exitDx=0;exitDy=0;" edge="1" parent="1" source="PZKsr74rgdb9UytkWlQ8-23" target="PZKsr74rgdb9UytkWlQ8-54">
          <mxGeometry width="100" height="100" relative="1" as="geometry">
            <mxPoint x="180" y="150" as="sourcePoint" />
            <mxPoint x="360" y="210" as="targetPoint" />
            <Array as="points">
              <mxPoint x="280" y="5" />
              <mxPoint x="40" y="140" />
            </Array>
          </mxGeometry>
        </mxCell>
        <mxCell id="PZKsr74rgdb9UytkWlQ8-79" value="" style="edgeStyle=entityRelationEdgeStyle;fontSize=12;html=1;endArrow=ERoneToMany;rounded=0;exitX=0.5;exitY=1;exitDx=0;exitDy=0;" edge="1" parent="1" source="PZKsr74rgdb9UytkWlQ8-3" target="PZKsr74rgdb9UytkWlQ8-54">
          <mxGeometry width="100" height="100" relative="1" as="geometry">
            <mxPoint x="570" y="130" as="sourcePoint" />
            <mxPoint x="430" y="210" as="targetPoint" />
            <Array as="points">
              <mxPoint x="570" y="110" />
              <mxPoint x="450" y="200" />
              <mxPoint x="550" y="230" />
            </Array>
          </mxGeometry>
        </mxCell>
        <mxCell id="PZKsr74rgdb9UytkWlQ8-80" value="" style="edgeStyle=entityRelationEdgeStyle;fontSize=12;html=1;endArrow=ERoneToMany;rounded=0;" edge="1" parent="1" source="PZKsr74rgdb9UytkWlQ8-3" target="PZKsr74rgdb9UytkWlQ8-30">
          <mxGeometry width="100" height="100" relative="1" as="geometry">
            <mxPoint x="535" y="105" as="sourcePoint" />
            <mxPoint x="560" y="-120" as="targetPoint" />
            <Array as="points">
              <mxPoint x="530" y="-205" />
              <mxPoint x="590" y="-5" />
              <mxPoint x="580" y="-5" />
            </Array>
          </mxGeometry>
        </mxCell>
        <mxCell id="PZKsr74rgdb9UytkWlQ8-82" value="email char(200) NOT NULL" style="shape=partialRectangle;overflow=hidden;connectable=0;fillColor=none;top=0;left=0;bottom=0;right=0;align=left;spacingLeft=6;" vertex="1" parent="1">
          <mxGeometry x="60" y="90" width="220" height="30" as="geometry">
            <mxRectangle width="220" height="30" as="alternateBounds" />
          </mxGeometry>
        </mxCell>
        <mxCell id="PZKsr74rgdb9UytkWlQ8-23" value="User" style="shape=table;startSize=30;container=1;collapsible=1;childLayout=tableLayout;fixedRows=1;rowLines=0;fontStyle=1;align=center;resizeLast=1;" vertex="1" parent="1">
          <mxGeometry x="30" y="10" width="250" height="130" as="geometry" />
        </mxCell>
        <mxCell id="PZKsr74rgdb9UytkWlQ8-24" value="" style="shape=partialRectangle;collapsible=0;dropTarget=0;pointerEvents=0;fillColor=none;points=[[0,0.5],[1,0.5]];portConstraint=eastwest;top=0;left=0;right=0;bottom=1;" vertex="1" parent="PZKsr74rgdb9UytkWlQ8-23">
          <mxGeometry y="30" width="250" height="30" as="geometry" />
        </mxCell>
        <mxCell id="PZKsr74rgdb9UytkWlQ8-25" value="PK" style="shape=partialRectangle;overflow=hidden;connectable=0;fillColor=none;top=0;left=0;bottom=0;right=0;fontStyle=1;" vertex="1" parent="PZKsr74rgdb9UytkWlQ8-24">
          <mxGeometry width="30" height="30" as="geometry">
            <mxRectangle width="30" height="30" as="alternateBounds" />
          </mxGeometry>
        </mxCell>
        <mxCell id="PZKsr74rgdb9UytkWlQ8-26" value="user_id int NOT NULL " style="shape=partialRectangle;overflow=hidden;connectable=0;fillColor=none;top=0;left=0;bottom=0;right=0;align=left;spacingLeft=6;fontStyle=5;" vertex="1" parent="PZKsr74rgdb9UytkWlQ8-24">
          <mxGeometry x="30" width="220" height="30" as="geometry">
            <mxRectangle width="220" height="30" as="alternateBounds" />
          </mxGeometry>
        </mxCell>
        <mxCell id="PZKsr74rgdb9UytkWlQ8-27" value="" style="shape=partialRectangle;collapsible=0;dropTarget=0;pointerEvents=0;fillColor=none;points=[[0,0.5],[1,0.5]];portConstraint=eastwest;top=0;left=0;right=0;bottom=0;" vertex="1" parent="PZKsr74rgdb9UytkWlQ8-23">
          <mxGeometry y="60" width="250" height="25" as="geometry" />
        </mxCell>
        <mxCell id="PZKsr74rgdb9UytkWlQ8-28" value="" style="shape=partialRectangle;overflow=hidden;connectable=0;fillColor=none;top=0;left=0;bottom=0;right=0;" vertex="1" parent="PZKsr74rgdb9UytkWlQ8-27">
          <mxGeometry width="30" height="25" as="geometry">
            <mxRectangle width="30" height="25" as="alternateBounds" />
          </mxGeometry>
        </mxCell>
        <mxCell id="PZKsr74rgdb9UytkWlQ8-29" value="name char(200) NOT NULL" style="shape=partialRectangle;overflow=hidden;connectable=0;fillColor=none;top=0;left=0;bottom=0;right=0;align=left;spacingLeft=6;" vertex="1" parent="PZKsr74rgdb9UytkWlQ8-27">
          <mxGeometry x="30" width="220" height="25" as="geometry">
            <mxRectangle width="220" height="25" as="alternateBounds" />
          </mxGeometry>
        </mxCell>
        <mxCell id="PZKsr74rgdb9UytkWlQ8-87" value="" style="shape=partialRectangle;collapsible=0;dropTarget=0;pointerEvents=0;fillColor=none;points=[[0,0.5],[1,0.5]];portConstraint=eastwest;top=0;left=0;right=0;bottom=0;" vertex="1" parent="1">
          <mxGeometry x="580" y="120" width="250" height="30" as="geometry" />
        </mxCell>
        <mxCell id="PZKsr74rgdb9UytkWlQ8-88" value="" style="shape=partialRectangle;overflow=hidden;connectable=0;fillColor=none;top=0;left=0;bottom=0;right=0;" vertex="1" parent="PZKsr74rgdb9UytkWlQ8-87">
          <mxGeometry width="30" height="30" as="geometry">
            <mxRectangle width="30" height="30" as="alternateBounds" />
          </mxGeometry>
        </mxCell>
        <mxCell id="PZKsr74rgdb9UytkWlQ8-89" value="description char(200) NOT NULL" style="shape=partialRectangle;overflow=hidden;connectable=0;fillColor=none;top=0;left=0;bottom=0;right=0;align=left;spacingLeft=6;" vertex="1" parent="PZKsr74rgdb9UytkWlQ8-87">
          <mxGeometry x="30" width="220" height="30" as="geometry">
            <mxRectangle width="220" height="30" as="alternateBounds" />
          </mxGeometry>
        </mxCell>
        <mxCell id="PZKsr74rgdb9UytkWlQ8-93" value="" style="shape=partialRectangle;collapsible=0;dropTarget=0;pointerEvents=0;fillColor=none;points=[[0,0.5],[1,0.5]];portConstraint=eastwest;top=0;left=0;right=0;bottom=0;" vertex="1" parent="1">
          <mxGeometry x="580" y="150" width="250" height="30" as="geometry" />
        </mxCell>
        <mxCell id="PZKsr74rgdb9UytkWlQ8-94" value="" style="shape=partialRectangle;overflow=hidden;connectable=0;fillColor=none;top=0;left=0;bottom=0;right=0;" vertex="1" parent="PZKsr74rgdb9UytkWlQ8-93">
          <mxGeometry width="30" height="30" as="geometry">
            <mxRectangle width="30" height="30" as="alternateBounds" />
          </mxGeometry>
        </mxCell>
        <mxCell id="PZKsr74rgdb9UytkWlQ8-95" value="start_date timestamp NOT NULL" style="shape=partialRectangle;overflow=hidden;connectable=0;fillColor=none;top=0;left=0;bottom=0;right=0;align=left;spacingLeft=6;" vertex="1" parent="PZKsr74rgdb9UytkWlQ8-93">
          <mxGeometry x="30" width="220" height="30" as="geometry">
            <mxRectangle width="220" height="30" as="alternateBounds" />
          </mxGeometry>
        </mxCell>
        <mxCell id="PZKsr74rgdb9UytkWlQ8-96" value="" style="shape=partialRectangle;collapsible=0;dropTarget=0;pointerEvents=0;fillColor=none;points=[[0,0.5],[1,0.5]];portConstraint=eastwest;top=0;left=0;right=0;bottom=0;" vertex="1" parent="1">
          <mxGeometry x="580" y="180" width="250" height="30" as="geometry" />
        </mxCell>
        <mxCell id="PZKsr74rgdb9UytkWlQ8-97" value="" style="shape=partialRectangle;overflow=hidden;connectable=0;fillColor=none;top=0;left=0;bottom=0;right=0;" vertex="1" parent="PZKsr74rgdb9UytkWlQ8-96">
          <mxGeometry width="30" height="30" as="geometry">
            <mxRectangle width="30" height="30" as="alternateBounds" />
          </mxGeometry>
        </mxCell>
        <mxCell id="PZKsr74rgdb9UytkWlQ8-98" value="due_date timestamp NOT NULL" style="shape=partialRectangle;overflow=hidden;connectable=0;fillColor=none;top=0;left=0;bottom=0;right=0;align=left;spacingLeft=6;" vertex="1" parent="PZKsr74rgdb9UytkWlQ8-96">
          <mxGeometry x="30" width="220" height="30" as="geometry">
            <mxRectangle width="220" height="30" as="alternateBounds" />
          </mxGeometry>
        </mxCell>
        <mxCell id="PZKsr74rgdb9UytkWlQ8-99" value="" style="shape=partialRectangle;collapsible=0;dropTarget=0;pointerEvents=0;fillColor=none;points=[[0,0.5],[1,0.5]];portConstraint=eastwest;top=0;left=0;right=0;bottom=0;" vertex="1" parent="1">
          <mxGeometry x="580" y="210" width="250" height="30" as="geometry" />
        </mxCell>
        <mxCell id="PZKsr74rgdb9UytkWlQ8-100" value="" style="shape=partialRectangle;overflow=hidden;connectable=0;fillColor=none;top=0;left=0;bottom=0;right=0;" vertex="1" parent="PZKsr74rgdb9UytkWlQ8-99">
          <mxGeometry width="30" height="30" as="geometry">
            <mxRectangle width="30" height="30" as="alternateBounds" />
          </mxGeometry>
        </mxCell>
        <mxCell id="PZKsr74rgdb9UytkWlQ8-101" value="created_time timestamp NOT NULL" style="shape=partialRectangle;overflow=hidden;connectable=0;fillColor=none;top=0;left=0;bottom=0;right=0;align=left;spacingLeft=6;" vertex="1" parent="PZKsr74rgdb9UytkWlQ8-99">
          <mxGeometry x="30" width="220" height="30" as="geometry">
            <mxRectangle width="220" height="30" as="alternateBounds" />
          </mxGeometry>
        </mxCell>
        <mxCell id="PZKsr74rgdb9UytkWlQ8-102" value="edited_title char(200) NOT NULL" style="shape=partialRectangle;overflow=hidden;connectable=0;fillColor=none;top=0;left=0;bottom=0;right=0;align=left;spacingLeft=6;" vertex="1" parent="1">
          <mxGeometry x="510" y="-190" width="220" height="30" as="geometry">
            <mxRectangle width="220" height="30" as="alternateBounds" />
          </mxGeometry>
        </mxCell>
        <mxCell id="PZKsr74rgdb9UytkWlQ8-103" value="" style="shape=partialRectangle;collapsible=0;dropTarget=0;pointerEvents=0;fillColor=none;points=[[0,0.5],[1,0.5]];portConstraint=eastwest;top=0;left=0;right=0;bottom=0;" vertex="1" parent="1">
          <mxGeometry x="480" y="-160" width="250" height="30" as="geometry" />
        </mxCell>
        <mxCell id="PZKsr74rgdb9UytkWlQ8-104" value="" style="shape=partialRectangle;overflow=hidden;connectable=0;fillColor=none;top=0;left=0;bottom=0;right=0;" vertex="1" parent="PZKsr74rgdb9UytkWlQ8-103">
          <mxGeometry width="30" height="30" as="geometry">
            <mxRectangle width="30" height="30" as="alternateBounds" />
          </mxGeometry>
        </mxCell>
        <mxCell id="PZKsr74rgdb9UytkWlQ8-105" value="edited_description char(200) NOT NULL" style="shape=partialRectangle;overflow=hidden;connectable=0;fillColor=none;top=0;left=0;bottom=0;right=0;align=left;spacingLeft=6;" vertex="1" parent="PZKsr74rgdb9UytkWlQ8-103">
          <mxGeometry x="30" width="220" height="30" as="geometry">
            <mxRectangle width="220" height="30" as="alternateBounds" />
          </mxGeometry>
        </mxCell>
        <mxCell id="PZKsr74rgdb9UytkWlQ8-106" value="" style="shape=partialRectangle;collapsible=0;dropTarget=0;pointerEvents=0;fillColor=none;points=[[0,0.5],[1,0.5]];portConstraint=eastwest;top=0;left=0;right=0;bottom=0;" vertex="1" parent="1">
          <mxGeometry x="480" y="-130" width="250" height="30" as="geometry" />
        </mxCell>
        <mxCell id="PZKsr74rgdb9UytkWlQ8-107" value="" style="shape=partialRectangle;overflow=hidden;connectable=0;fillColor=none;top=0;left=0;bottom=0;right=0;" vertex="1" parent="PZKsr74rgdb9UytkWlQ8-106">
          <mxGeometry width="30" height="30" as="geometry">
            <mxRectangle width="30" height="30" as="alternateBounds" />
          </mxGeometry>
        </mxCell>
        <mxCell id="PZKsr74rgdb9UytkWlQ8-108" value="edited_start_date timestamp NOT NULL" style="shape=partialRectangle;overflow=hidden;connectable=0;fillColor=none;top=0;left=0;bottom=0;right=0;align=left;spacingLeft=6;" vertex="1" parent="PZKsr74rgdb9UytkWlQ8-106">
          <mxGeometry x="30" width="220" height="30" as="geometry">
            <mxRectangle width="220" height="30" as="alternateBounds" />
          </mxGeometry>
        </mxCell>
        <mxCell id="PZKsr74rgdb9UytkWlQ8-109" value="" style="shape=partialRectangle;collapsible=0;dropTarget=0;pointerEvents=0;fillColor=none;points=[[0,0.5],[1,0.5]];portConstraint=eastwest;top=0;left=0;right=0;bottom=0;" vertex="1" parent="1">
          <mxGeometry x="480" y="-100" width="250" height="30" as="geometry" />
        </mxCell>
        <mxCell id="PZKsr74rgdb9UytkWlQ8-110" value="" style="shape=partialRectangle;overflow=hidden;connectable=0;fillColor=none;top=0;left=0;bottom=0;right=0;" vertex="1" parent="PZKsr74rgdb9UytkWlQ8-109">
          <mxGeometry width="30" height="30" as="geometry">
            <mxRectangle width="30" height="30" as="alternateBounds" />
          </mxGeometry>
        </mxCell>
        <mxCell id="PZKsr74rgdb9UytkWlQ8-111" value="edited_due_date timestamp NOT NULL" style="shape=partialRectangle;overflow=hidden;connectable=0;fillColor=none;top=0;left=0;bottom=0;right=0;align=left;spacingLeft=6;" vertex="1" parent="PZKsr74rgdb9UytkWlQ8-109">
          <mxGeometry x="30" width="220" height="30" as="geometry">
            <mxRectangle width="220" height="30" as="alternateBounds" />
          </mxGeometry>
        </mxCell>
        <mxCell id="PZKsr74rgdb9UytkWlQ8-112" value="" style="shape=partialRectangle;collapsible=0;dropTarget=0;pointerEvents=0;fillColor=none;points=[[0,0.5],[1,0.5]];portConstraint=eastwest;top=0;left=0;right=0;bottom=0;" vertex="1" parent="1">
          <mxGeometry x="480" y="-70" width="250" height="30" as="geometry" />
        </mxCell>
        <mxCell id="PZKsr74rgdb9UytkWlQ8-113" value="" style="shape=partialRectangle;overflow=hidden;connectable=0;fillColor=none;top=0;left=0;bottom=0;right=0;" vertex="1" parent="PZKsr74rgdb9UytkWlQ8-112">
          <mxGeometry width="30" height="30" as="geometry">
            <mxRectangle width="30" height="30" as="alternateBounds" />
          </mxGeometry>
        </mxCell>
        <mxCell id="PZKsr74rgdb9UytkWlQ8-114" value="edited_time timestamp NOT NULL" style="shape=partialRectangle;overflow=hidden;connectable=0;fillColor=none;top=0;left=0;bottom=0;right=0;align=left;spacingLeft=6;" vertex="1" parent="PZKsr74rgdb9UytkWlQ8-112">
          <mxGeometry x="30" width="220" height="30" as="geometry">
            <mxRectangle width="220" height="30" as="alternateBounds" />
          </mxGeometry>
        </mxCell>
        <mxCell id="PZKsr74rgdb9UytkWlQ8-115" value="update_time timestamp NOT NULL" style="shape=partialRectangle;overflow=hidden;connectable=0;fillColor=none;top=0;left=0;bottom=0;right=0;align=left;spacingLeft=6;" vertex="1" parent="1">
          <mxGeometry x="90" y="-110" width="220" height="30" as="geometry">
            <mxRectangle width="220" height="30" as="alternateBounds" />
          </mxGeometry>
        </mxCell>
        <mxCell id="PZKsr74rgdb9UytkWlQ8-50" value="UpdateProgressMilestone" style="shape=table;startSize=30;container=1;collapsible=1;childLayout=tableLayout;fixedRows=1;rowLines=0;fontStyle=1;align=center;resizeLast=1;" vertex="1" parent="1">
          <mxGeometry x="220" y="230" width="290" height="190" as="geometry" />
        </mxCell>
        <mxCell id="PZKsr74rgdb9UytkWlQ8-51" value="" style="shape=partialRectangle;collapsible=0;dropTarget=0;pointerEvents=0;fillColor=none;points=[[0,0.5],[1,0.5]];portConstraint=eastwest;top=0;left=0;right=0;bottom=1;" vertex="1" parent="PZKsr74rgdb9UytkWlQ8-50">
          <mxGeometry y="30" width="290" height="30" as="geometry" />
        </mxCell>
        <mxCell id="PZKsr74rgdb9UytkWlQ8-52" value="PK" style="shape=partialRectangle;overflow=hidden;connectable=0;fillColor=none;top=0;left=0;bottom=0;right=0;fontStyle=1;" vertex="1" parent="PZKsr74rgdb9UytkWlQ8-51">
          <mxGeometry width="30" height="30" as="geometry">
            <mxRectangle width="30" height="30" as="alternateBounds" />
          </mxGeometry>
        </mxCell>
        <mxCell id="PZKsr74rgdb9UytkWlQ8-53" value="update_progress_id char(200) NOT NULL " style="shape=partialRectangle;overflow=hidden;connectable=0;fillColor=none;top=0;left=0;bottom=0;right=0;align=left;spacingLeft=6;fontStyle=5;" vertex="1" parent="PZKsr74rgdb9UytkWlQ8-51">
          <mxGeometry x="30" width="260" height="30" as="geometry">
            <mxRectangle width="260" height="30" as="alternateBounds" />
          </mxGeometry>
        </mxCell>
        <mxCell id="PZKsr74rgdb9UytkWlQ8-54" value="" style="shape=partialRectangle;collapsible=0;dropTarget=0;pointerEvents=0;fillColor=none;points=[[0,0.5],[1,0.5]];portConstraint=eastwest;top=0;left=0;right=0;bottom=0;" vertex="1" parent="PZKsr74rgdb9UytkWlQ8-50">
          <mxGeometry y="60" width="290" height="30" as="geometry" />
        </mxCell>
        <mxCell id="PZKsr74rgdb9UytkWlQ8-55" value="FK1" style="shape=partialRectangle;overflow=hidden;connectable=0;fillColor=none;top=0;left=0;bottom=0;right=0;" vertex="1" parent="PZKsr74rgdb9UytkWlQ8-54">
          <mxGeometry width="30" height="30" as="geometry">
            <mxRectangle width="30" height="30" as="alternateBounds" />
          </mxGeometry>
        </mxCell>
        <mxCell id="PZKsr74rgdb9UytkWlQ8-56" value="milestone_id char(200) NOT NULL" style="shape=partialRectangle;overflow=hidden;connectable=0;fillColor=none;top=0;left=0;bottom=0;right=0;align=left;spacingLeft=6;" vertex="1" parent="PZKsr74rgdb9UytkWlQ8-54">
          <mxGeometry x="30" width="260" height="30" as="geometry">
            <mxRectangle width="260" height="30" as="alternateBounds" />
          </mxGeometry>
        </mxCell>
        <mxCell id="PZKsr74rgdb9UytkWlQ8-57" value="" style="shape=partialRectangle;collapsible=0;dropTarget=0;pointerEvents=0;fillColor=none;points=[[0,0.5],[1,0.5]];portConstraint=eastwest;top=0;left=0;right=0;bottom=0;" vertex="1" parent="PZKsr74rgdb9UytkWlQ8-50">
          <mxGeometry y="90" width="290" height="30" as="geometry" />
        </mxCell>
        <mxCell id="PZKsr74rgdb9UytkWlQ8-58" value="" style="shape=partialRectangle;overflow=hidden;connectable=0;fillColor=none;top=0;left=0;bottom=0;right=0;" vertex="1" parent="PZKsr74rgdb9UytkWlQ8-57">
          <mxGeometry width="30" height="30" as="geometry">
            <mxRectangle width="30" height="30" as="alternateBounds" />
          </mxGeometry>
        </mxCell>
        <mxCell id="PZKsr74rgdb9UytkWlQ8-59" value="" style="shape=partialRectangle;overflow=hidden;connectable=0;fillColor=none;top=0;left=0;bottom=0;right=0;align=left;spacingLeft=6;" vertex="1" parent="PZKsr74rgdb9UytkWlQ8-57">
          <mxGeometry x="30" width="260" height="30" as="geometry">
            <mxRectangle width="260" height="30" as="alternateBounds" />
          </mxGeometry>
        </mxCell>
        <mxCell id="PZKsr74rgdb9UytkWlQ8-119" value="" style="shape=partialRectangle;collapsible=0;dropTarget=0;pointerEvents=0;fillColor=none;points=[[0,0.5],[1,0.5]];portConstraint=eastwest;top=0;left=0;right=0;bottom=0;" vertex="1" parent="1">
          <mxGeometry x="220" y="320" width="290" height="30" as="geometry" />
        </mxCell>
        <mxCell id="PZKsr74rgdb9UytkWlQ8-120" value="FK2" style="shape=partialRectangle;overflow=hidden;connectable=0;fillColor=none;top=0;left=0;bottom=0;right=0;" vertex="1" parent="PZKsr74rgdb9UytkWlQ8-119">
          <mxGeometry width="30" height="30" as="geometry">
            <mxRectangle width="30" height="30" as="alternateBounds" />
          </mxGeometry>
        </mxCell>
        <mxCell id="PZKsr74rgdb9UytkWlQ8-121" value="user_id char(200) NOT NULL" style="shape=partialRectangle;overflow=hidden;connectable=0;fillColor=none;top=0;left=0;bottom=0;right=0;align=left;spacingLeft=6;" vertex="1" parent="PZKsr74rgdb9UytkWlQ8-119">
          <mxGeometry x="30" width="260" height="30" as="geometry">
            <mxRectangle width="260" height="30" as="alternateBounds" />
          </mxGeometry>
        </mxCell>
        <mxCell id="PZKsr74rgdb9UytkWlQ8-122" value="" style="shape=partialRectangle;collapsible=0;dropTarget=0;pointerEvents=0;fillColor=none;points=[[0,0.5],[1,0.5]];portConstraint=eastwest;top=0;left=0;right=0;bottom=0;" vertex="1" parent="1">
          <mxGeometry x="220" y="350" width="250" height="30" as="geometry" />
        </mxCell>
        <mxCell id="PZKsr74rgdb9UytkWlQ8-123" value="" style="shape=partialRectangle;overflow=hidden;connectable=0;fillColor=none;top=0;left=0;bottom=0;right=0;" vertex="1" parent="PZKsr74rgdb9UytkWlQ8-122">
          <mxGeometry width="30" height="30" as="geometry">
            <mxRectangle width="30" height="30" as="alternateBounds" />
          </mxGeometry>
        </mxCell>
        <mxCell id="PZKsr74rgdb9UytkWlQ8-124" value="updated_progress  float NOT NULL" style="shape=partialRectangle;overflow=hidden;connectable=0;fillColor=none;top=0;left=0;bottom=0;right=0;align=left;spacingLeft=6;" vertex="1" parent="PZKsr74rgdb9UytkWlQ8-122">
          <mxGeometry x="30" width="220" height="30" as="geometry">
            <mxRectangle width="220" height="30" as="alternateBounds" />
          </mxGeometry>
        </mxCell>
        <mxCell id="PZKsr74rgdb9UytkWlQ8-125" value="" style="shape=partialRectangle;collapsible=0;dropTarget=0;pointerEvents=0;fillColor=none;points=[[0,0.5],[1,0.5]];portConstraint=eastwest;top=0;left=0;right=0;bottom=0;" vertex="1" parent="1">
          <mxGeometry x="220" y="380" width="250" height="30" as="geometry" />
        </mxCell>
        <mxCell id="PZKsr74rgdb9UytkWlQ8-126" value="" style="shape=partialRectangle;overflow=hidden;connectable=0;fillColor=none;top=0;left=0;bottom=0;right=0;" vertex="1" parent="PZKsr74rgdb9UytkWlQ8-125">
          <mxGeometry width="30" height="30" as="geometry">
            <mxRectangle width="30" height="30" as="alternateBounds" />
          </mxGeometry>
        </mxCell>
        <mxCell id="PZKsr74rgdb9UytkWlQ8-127" value="updated_time timestamp NOT NULL" style="shape=partialRectangle;overflow=hidden;connectable=0;fillColor=none;top=0;left=0;bottom=0;right=0;align=left;spacingLeft=6;" vertex="1" parent="PZKsr74rgdb9UytkWlQ8-125">
          <mxGeometry x="30" width="220" height="30" as="geometry">
            <mxRectangle width="220" height="30" as="alternateBounds" />
          </mxGeometry>
        </mxCell>
      </root>
    </mxGraphModel>
  </diagram>
  <diagram id="rxHiEzRHlyAbts0W6Baf" name="Sequence Diagram 1">
    <mxGraphModel dx="1900" dy="522" grid="1" gridSize="10" guides="1" tooltips="1" connect="1" arrows="1" fold="1" page="1" pageScale="1" pageWidth="850" pageHeight="1100" math="0" shadow="0">
      <root>
        <mxCell id="0" />
        <mxCell id="1" parent="0" />
        <mxCell id="nC8B8n3_M14lNJf2l6J3-1" value="Client" style="shape=umlLifeline;perimeter=lifelinePerimeter;whiteSpace=wrap;html=1;container=0;dropTarget=0;collapsible=0;recursiveResize=0;outlineConnect=0;portConstraint=eastwest;newEdgeStyle={&quot;edgeStyle&quot;:&quot;elbowEdgeStyle&quot;,&quot;elbow&quot;:&quot;vertical&quot;,&quot;curved&quot;:0,&quot;rounded&quot;:0};" vertex="1" parent="1">
          <mxGeometry x="150" y="10" width="100" height="300" as="geometry" />
        </mxCell>
        <mxCell id="nC8B8n3_M14lNJf2l6J3-2" value="" style="html=1;points=[];perimeter=orthogonalPerimeter;outlineConnect=0;targetShapes=umlLifeline;portConstraint=eastwest;newEdgeStyle={&quot;edgeStyle&quot;:&quot;elbowEdgeStyle&quot;,&quot;elbow&quot;:&quot;vertical&quot;,&quot;curved&quot;:0,&quot;rounded&quot;:0};" vertex="1" parent="nC8B8n3_M14lNJf2l6J3-1">
          <mxGeometry x="45" y="70" width="10" height="190" as="geometry" />
        </mxCell>
        <mxCell id="nC8B8n3_M14lNJf2l6J3-5" value="API" style="shape=umlLifeline;perimeter=lifelinePerimeter;whiteSpace=wrap;html=1;container=0;dropTarget=0;collapsible=0;recursiveResize=0;outlineConnect=0;portConstraint=eastwest;newEdgeStyle={&quot;edgeStyle&quot;:&quot;elbowEdgeStyle&quot;,&quot;elbow&quot;:&quot;vertical&quot;,&quot;curved&quot;:0,&quot;rounded&quot;:0};" vertex="1" parent="1">
          <mxGeometry x="290" y="10" width="100" height="300" as="geometry" />
        </mxCell>
        <mxCell id="nC8B8n3_M14lNJf2l6J3-6" value="" style="html=1;points=[];perimeter=orthogonalPerimeter;outlineConnect=0;targetShapes=umlLifeline;portConstraint=eastwest;newEdgeStyle={&quot;edgeStyle&quot;:&quot;elbowEdgeStyle&quot;,&quot;elbow&quot;:&quot;vertical&quot;,&quot;curved&quot;:0,&quot;rounded&quot;:0};" vertex="1" parent="nC8B8n3_M14lNJf2l6J3-5">
          <mxGeometry x="45" y="100" width="10" height="130" as="geometry" />
        </mxCell>
        <mxCell id="0H2gzwjZPTKOMdXCMoGb-1" value="Milestone&lt;br&gt;Microservice" style="shape=umlLifeline;perimeter=lifelinePerimeter;whiteSpace=wrap;html=1;container=0;dropTarget=0;collapsible=0;recursiveResize=0;outlineConnect=0;portConstraint=eastwest;newEdgeStyle={&quot;edgeStyle&quot;:&quot;elbowEdgeStyle&quot;,&quot;elbow&quot;:&quot;vertical&quot;,&quot;curved&quot;:0,&quot;rounded&quot;:0};" vertex="1" parent="1">
          <mxGeometry x="425" y="10" width="100" height="300" as="geometry" />
        </mxCell>
        <mxCell id="0H2gzwjZPTKOMdXCMoGb-2" value="" style="html=1;points=[];perimeter=orthogonalPerimeter;outlineConnect=0;targetShapes=umlLifeline;portConstraint=eastwest;newEdgeStyle={&quot;edgeStyle&quot;:&quot;elbowEdgeStyle&quot;,&quot;elbow&quot;:&quot;vertical&quot;,&quot;curved&quot;:0,&quot;rounded&quot;:0};" vertex="1" parent="0H2gzwjZPTKOMdXCMoGb-1">
          <mxGeometry x="45" y="120" width="10" height="90" as="geometry" />
        </mxCell>
        <mxCell id="0H2gzwjZPTKOMdXCMoGb-3" value="Database" style="shape=umlLifeline;perimeter=lifelinePerimeter;whiteSpace=wrap;html=1;container=0;dropTarget=0;collapsible=0;recursiveResize=0;outlineConnect=0;portConstraint=eastwest;newEdgeStyle={&quot;edgeStyle&quot;:&quot;elbowEdgeStyle&quot;,&quot;elbow&quot;:&quot;vertical&quot;,&quot;curved&quot;:0,&quot;rounded&quot;:0};" vertex="1" parent="1">
          <mxGeometry x="570" y="10" width="100" height="300" as="geometry" />
        </mxCell>
        <mxCell id="0H2gzwjZPTKOMdXCMoGb-4" value="" style="html=1;points=[];perimeter=orthogonalPerimeter;outlineConnect=0;targetShapes=umlLifeline;portConstraint=eastwest;newEdgeStyle={&quot;edgeStyle&quot;:&quot;elbowEdgeStyle&quot;,&quot;elbow&quot;:&quot;vertical&quot;,&quot;curved&quot;:0,&quot;rounded&quot;:0};" vertex="1" parent="0H2gzwjZPTKOMdXCMoGb-3">
          <mxGeometry x="45" y="130" width="10" height="60" as="geometry" />
        </mxCell>
        <mxCell id="0H2gzwjZPTKOMdXCMoGb-8" style="edgeStyle=orthogonalEdgeStyle;rounded=0;orthogonalLoop=1;jettySize=auto;html=1;curved=0;" edge="1" parent="1" source="0H2gzwjZPTKOMdXCMoGb-7" target="nC8B8n3_M14lNJf2l6J3-1">
          <mxGeometry relative="1" as="geometry">
            <mxPoint x="120" y="160" as="targetPoint" />
            <Array as="points">
              <mxPoint x="140" y="100" />
              <mxPoint x="140" y="100" />
            </Array>
          </mxGeometry>
        </mxCell>
        <mxCell id="0H2gzwjZPTKOMdXCMoGb-9" value="1.PM bấm nút &quot;Khởi tạo Milestone&quot;&lt;div&gt;và submit form&lt;/div&gt;" style="edgeLabel;html=1;align=center;verticalAlign=middle;resizable=0;points=[];" vertex="1" connectable="0" parent="0H2gzwjZPTKOMdXCMoGb-8">
          <mxGeometry x="-0.525" y="3" relative="1" as="geometry">
            <mxPoint x="43" y="-17" as="offset" />
          </mxGeometry>
        </mxCell>
        <mxCell id="0H2gzwjZPTKOMdXCMoGb-7" value="" style="shape=umlLifeline;perimeter=lifelinePerimeter;whiteSpace=wrap;html=1;container=1;dropTarget=0;collapsible=0;recursiveResize=0;outlineConnect=0;portConstraint=eastwest;newEdgeStyle={&quot;curved&quot;:0,&quot;rounded&quot;:0};participant=umlActor;size=40;" vertex="1" parent="1">
          <mxGeometry x="-30" y="10" width="20" height="300" as="geometry" />
        </mxCell>
        <mxCell id="0H2gzwjZPTKOMdXCMoGb-16" style="edgeStyle=elbowEdgeStyle;rounded=0;orthogonalLoop=1;jettySize=auto;html=1;elbow=vertical;curved=0;" edge="1" parent="1">
          <mxGeometry relative="1" as="geometry">
            <mxPoint x="200.5" y="120" as="sourcePoint" />
            <mxPoint x="335" y="120" as="targetPoint" />
          </mxGeometry>
        </mxCell>
        <mxCell id="0H2gzwjZPTKOMdXCMoGb-17" value="2. Gửi HTTP request&amp;nbsp;&lt;div&gt;khởi tạo milestone&lt;/div&gt;" style="edgeLabel;html=1;align=center;verticalAlign=middle;resizable=0;points=[];" vertex="1" connectable="0" parent="0H2gzwjZPTKOMdXCMoGb-16">
          <mxGeometry x="-0.6342" y="4" relative="1" as="geometry">
            <mxPoint x="40" y="-16" as="offset" />
          </mxGeometry>
        </mxCell>
        <mxCell id="0H2gzwjZPTKOMdXCMoGb-18" style="edgeStyle=elbowEdgeStyle;rounded=0;orthogonalLoop=1;jettySize=auto;html=1;elbow=vertical;curved=0;" edge="1" parent="1">
          <mxGeometry relative="1" as="geometry">
            <mxPoint x="345" y="140" as="sourcePoint" />
            <mxPoint x="470" y="140" as="targetPoint" />
          </mxGeometry>
        </mxCell>
        <mxCell id="0H2gzwjZPTKOMdXCMoGb-19" value="3.&amp;nbsp; Chuyển tiếp HTTP&amp;nbsp;&lt;div&gt;request khởi tạo&amp;nbsp;&lt;/div&gt;&lt;div&gt;milestone&lt;/div&gt;" style="edgeLabel;html=1;align=center;verticalAlign=middle;resizable=0;points=[];" vertex="1" connectable="0" parent="0H2gzwjZPTKOMdXCMoGb-18">
          <mxGeometry x="-0.5104" y="4" relative="1" as="geometry">
            <mxPoint x="34" y="-26" as="offset" />
          </mxGeometry>
        </mxCell>
        <mxCell id="0H2gzwjZPTKOMdXCMoGb-21" style="edgeStyle=elbowEdgeStyle;rounded=0;orthogonalLoop=1;jettySize=auto;html=1;elbow=vertical;curved=0;" edge="1" parent="1">
          <mxGeometry relative="1" as="geometry">
            <mxPoint x="480" y="150" as="sourcePoint" />
            <mxPoint x="615" y="150" as="targetPoint" />
          </mxGeometry>
        </mxCell>
        <mxCell id="0H2gzwjZPTKOMdXCMoGb-22" value="4.Lưu record&amp;nbsp;&lt;div&gt;vào database&lt;/div&gt;" style="edgeLabel;html=1;align=center;verticalAlign=middle;resizable=0;points=[];" vertex="1" connectable="0" parent="0H2gzwjZPTKOMdXCMoGb-21">
          <mxGeometry x="-0.5574" y="3" relative="1" as="geometry">
            <mxPoint x="41" y="-17" as="offset" />
          </mxGeometry>
        </mxCell>
        <mxCell id="0H2gzwjZPTKOMdXCMoGb-23" style="edgeStyle=elbowEdgeStyle;rounded=0;orthogonalLoop=1;jettySize=auto;html=1;elbow=vertical;curved=0;" edge="1" parent="1">
          <mxGeometry relative="1" as="geometry">
            <mxPoint x="615" y="190" as="sourcePoint" />
            <mxPoint x="480" y="190" as="targetPoint" />
          </mxGeometry>
        </mxCell>
        <mxCell id="0H2gzwjZPTKOMdXCMoGb-24" value="5. Xác nhận success&lt;div&gt;lưu vào database&lt;/div&gt;" style="edgeLabel;html=1;align=center;verticalAlign=middle;resizable=0;points=[];" vertex="1" connectable="0" parent="0H2gzwjZPTKOMdXCMoGb-23">
          <mxGeometry x="0.3541" y="-5" relative="1" as="geometry">
            <mxPoint x="26" y="-10" as="offset" />
          </mxGeometry>
        </mxCell>
        <mxCell id="0H2gzwjZPTKOMdXCMoGb-25" style="edgeStyle=elbowEdgeStyle;rounded=0;orthogonalLoop=1;jettySize=auto;html=1;elbow=horizontal;curved=0;" edge="1" parent="1">
          <mxGeometry relative="1" as="geometry">
            <mxPoint x="470" y="210" as="sourcePoint" />
            <mxPoint x="339.5" y="210" as="targetPoint" />
          </mxGeometry>
        </mxCell>
        <mxCell id="0H2gzwjZPTKOMdXCMoGb-26" value="6.Trả kết quả&amp;nbsp;&lt;div&gt;thành công&lt;/div&gt;" style="edgeLabel;html=1;align=center;verticalAlign=middle;resizable=0;points=[];" vertex="1" connectable="0" parent="0H2gzwjZPTKOMdXCMoGb-25">
          <mxGeometry x="0.3548" y="-2" relative="1" as="geometry">
            <mxPoint x="18" y="-18" as="offset" />
          </mxGeometry>
        </mxCell>
        <mxCell id="0H2gzwjZPTKOMdXCMoGb-27" style="edgeStyle=elbowEdgeStyle;rounded=0;orthogonalLoop=1;jettySize=auto;html=1;elbow=vertical;curved=0;" edge="1" parent="1">
          <mxGeometry relative="1" as="geometry">
            <mxPoint x="335" y="230" as="sourcePoint" />
            <mxPoint x="199.5" y="230" as="targetPoint" />
          </mxGeometry>
        </mxCell>
        <mxCell id="0H2gzwjZPTKOMdXCMoGb-28" value="&lt;span style=&quot;color: rgba(0, 0, 0, 0); font-family: monospace; font-size: 0px; text-align: start; background-color: rgb(251, 251, 251);&quot;&gt;%3CmxGraphModel%3E%3Croot%3E%3CmxCell%20id%3D%220%22%2F%3E%3CmxCell%20id%3D%221%22%20parent%3D%220%22%2F%3E%3CmxCell%20id%3D%222%22%20value%3D%226.Tr%E1%BA%A3%20k%E1%BA%BFt%20qu%E1%BA%A3%26amp%3Bnbsp%3B%26lt%3Bdiv%26gt%3Bth%C3%A0nh%20c%C3%B4ng%26lt%3B%2Fdiv%26gt%3B%22%20style%3D%22edgeLabel%3Bhtml%3D1%3Balign%3Dcenter%3BverticalAlign%3Dmiddle%3Bresizable%3D0%3Bpoints%3D%5B%5D%3B%22%20vertex%3D%221%22%20connectable%3D%220%22%20parent%3D%221%22%3E%3CmxGeometry%20x%3D%22400%22%20y%3D%22190%22%20as%3D%22geometry%22%2F%3E%3C%2FmxCell%3E%3C%2Froot%3E%3C%2FmxGraphModel%3E&lt;/span&gt;" style="edgeLabel;html=1;align=center;verticalAlign=middle;resizable=0;points=[];" vertex="1" connectable="0" parent="0H2gzwjZPTKOMdXCMoGb-27">
          <mxGeometry x="0.231" y="-1" relative="1" as="geometry">
            <mxPoint as="offset" />
          </mxGeometry>
        </mxCell>
        <mxCell id="0H2gzwjZPTKOMdXCMoGb-29" value="7.Trả kết quả&amp;nbsp;&lt;div&gt;thành công&lt;/div&gt;" style="edgeLabel;html=1;align=center;verticalAlign=middle;resizable=0;points=[];" vertex="1" connectable="0" parent="0H2gzwjZPTKOMdXCMoGb-27">
          <mxGeometry x="0.1867" y="-3" relative="1" as="geometry">
            <mxPoint x="15" y="-17" as="offset" />
          </mxGeometry>
        </mxCell>
        <mxCell id="0H2gzwjZPTKOMdXCMoGb-30" style="edgeStyle=elbowEdgeStyle;rounded=0;orthogonalLoop=1;jettySize=auto;html=1;elbow=vertical;curved=0;" edge="1" parent="1">
          <mxGeometry relative="1" as="geometry">
            <mxPoint x="195" y="250" as="sourcePoint" />
            <mxPoint x="-20.5" y="250" as="targetPoint" />
          </mxGeometry>
        </mxCell>
        <mxCell id="0H2gzwjZPTKOMdXCMoGb-31" value="8.Display thông báo success&amp;nbsp;&lt;div&gt;và refresh Milestone list&lt;/div&gt;" style="edgeLabel;html=1;align=center;verticalAlign=middle;resizable=0;points=[];" vertex="1" connectable="0" parent="0H2gzwjZPTKOMdXCMoGb-30">
          <mxGeometry x="0.3587" y="-2" relative="1" as="geometry">
            <mxPoint x="41" y="-18" as="offset" />
          </mxGeometry>
        </mxCell>
        <mxCell id="0H2gzwjZPTKOMdXCMoGb-32" value="PM" style="text;html=1;align=center;verticalAlign=middle;resizable=0;points=[];autosize=1;strokeColor=none;fillColor=none;" vertex="1" parent="1">
          <mxGeometry x="-65" y="20" width="40" height="30" as="geometry" />
        </mxCell>
      </root>
    </mxGraphModel>
  </diagram>
  <diagram id="lr1uSN9vFT066UQDwfM5" name="SD 2">
    <mxGraphModel dx="1900" dy="522" grid="1" gridSize="10" guides="1" tooltips="1" connect="1" arrows="1" fold="1" page="1" pageScale="1" pageWidth="850" pageHeight="1100" math="0" shadow="0">
      <root>
        <mxCell id="0" />
        <mxCell id="1" parent="0" />
        <mxCell id="tCOYeDjUsTyxgK16auZj-1" value="Client" style="shape=umlLifeline;perimeter=lifelinePerimeter;whiteSpace=wrap;html=1;container=0;dropTarget=0;collapsible=0;recursiveResize=0;outlineConnect=0;portConstraint=eastwest;newEdgeStyle={&quot;edgeStyle&quot;:&quot;elbowEdgeStyle&quot;,&quot;elbow&quot;:&quot;vertical&quot;,&quot;curved&quot;:0,&quot;rounded&quot;:0};" vertex="1" parent="1">
          <mxGeometry x="150" y="10" width="100" height="300" as="geometry" />
        </mxCell>
        <mxCell id="tCOYeDjUsTyxgK16auZj-2" value="" style="html=1;points=[];perimeter=orthogonalPerimeter;outlineConnect=0;targetShapes=umlLifeline;portConstraint=eastwest;newEdgeStyle={&quot;edgeStyle&quot;:&quot;elbowEdgeStyle&quot;,&quot;elbow&quot;:&quot;vertical&quot;,&quot;curved&quot;:0,&quot;rounded&quot;:0};" vertex="1" parent="tCOYeDjUsTyxgK16auZj-1">
          <mxGeometry x="45" y="70" width="10" height="190" as="geometry" />
        </mxCell>
        <mxCell id="tCOYeDjUsTyxgK16auZj-3" value="API" style="shape=umlLifeline;perimeter=lifelinePerimeter;whiteSpace=wrap;html=1;container=0;dropTarget=0;collapsible=0;recursiveResize=0;outlineConnect=0;portConstraint=eastwest;newEdgeStyle={&quot;edgeStyle&quot;:&quot;elbowEdgeStyle&quot;,&quot;elbow&quot;:&quot;vertical&quot;,&quot;curved&quot;:0,&quot;rounded&quot;:0};" vertex="1" parent="1">
          <mxGeometry x="329.5" y="10" width="100" height="300" as="geometry" />
        </mxCell>
        <mxCell id="tCOYeDjUsTyxgK16auZj-4" value="" style="html=1;points=[];perimeter=orthogonalPerimeter;outlineConnect=0;targetShapes=umlLifeline;portConstraint=eastwest;newEdgeStyle={&quot;edgeStyle&quot;:&quot;elbowEdgeStyle&quot;,&quot;elbow&quot;:&quot;vertical&quot;,&quot;curved&quot;:0,&quot;rounded&quot;:0};" vertex="1" parent="tCOYeDjUsTyxgK16auZj-3">
          <mxGeometry x="45" y="100" width="10" height="130" as="geometry" />
        </mxCell>
        <mxCell id="tCOYeDjUsTyxgK16auZj-5" value="Milestone&lt;br&gt;Microservice" style="shape=umlLifeline;perimeter=lifelinePerimeter;whiteSpace=wrap;html=1;container=0;dropTarget=0;collapsible=0;recursiveResize=0;outlineConnect=0;portConstraint=eastwest;newEdgeStyle={&quot;edgeStyle&quot;:&quot;elbowEdgeStyle&quot;,&quot;elbow&quot;:&quot;vertical&quot;,&quot;curved&quot;:0,&quot;rounded&quot;:0};" vertex="1" parent="1">
          <mxGeometry x="464.5" y="10" width="100" height="300" as="geometry" />
        </mxCell>
        <mxCell id="tCOYeDjUsTyxgK16auZj-6" value="" style="html=1;points=[];perimeter=orthogonalPerimeter;outlineConnect=0;targetShapes=umlLifeline;portConstraint=eastwest;newEdgeStyle={&quot;edgeStyle&quot;:&quot;elbowEdgeStyle&quot;,&quot;elbow&quot;:&quot;vertical&quot;,&quot;curved&quot;:0,&quot;rounded&quot;:0};" vertex="1" parent="tCOYeDjUsTyxgK16auZj-5">
          <mxGeometry x="45" y="120" width="10" height="90" as="geometry" />
        </mxCell>
        <mxCell id="tCOYeDjUsTyxgK16auZj-7" value="Database" style="shape=umlLifeline;perimeter=lifelinePerimeter;whiteSpace=wrap;html=1;container=0;dropTarget=0;collapsible=0;recursiveResize=0;outlineConnect=0;portConstraint=eastwest;newEdgeStyle={&quot;edgeStyle&quot;:&quot;elbowEdgeStyle&quot;,&quot;elbow&quot;:&quot;vertical&quot;,&quot;curved&quot;:0,&quot;rounded&quot;:0};" vertex="1" parent="1">
          <mxGeometry x="620" y="10" width="100" height="300" as="geometry" />
        </mxCell>
        <mxCell id="tCOYeDjUsTyxgK16auZj-8" value="" style="html=1;points=[];perimeter=orthogonalPerimeter;outlineConnect=0;targetShapes=umlLifeline;portConstraint=eastwest;newEdgeStyle={&quot;edgeStyle&quot;:&quot;elbowEdgeStyle&quot;,&quot;elbow&quot;:&quot;vertical&quot;,&quot;curved&quot;:0,&quot;rounded&quot;:0};" vertex="1" parent="tCOYeDjUsTyxgK16auZj-7">
          <mxGeometry x="45" y="150" width="10" height="50" as="geometry" />
        </mxCell>
        <mxCell id="tCOYeDjUsTyxgK16auZj-9" style="edgeStyle=orthogonalEdgeStyle;rounded=0;orthogonalLoop=1;jettySize=auto;html=1;curved=0;" edge="1" parent="1" source="tCOYeDjUsTyxgK16auZj-11" target="tCOYeDjUsTyxgK16auZj-1">
          <mxGeometry relative="1" as="geometry">
            <mxPoint x="120" y="160" as="targetPoint" />
            <Array as="points">
              <mxPoint x="140" y="100" />
              <mxPoint x="140" y="100" />
            </Array>
          </mxGeometry>
        </mxCell>
        <mxCell id="tCOYeDjUsTyxgK16auZj-10" value="1. PM chọn một milestone và bấm&lt;div&gt;&quot;Chỉnh sửa&quot;, sau đó submit form&lt;/div&gt;" style="edgeLabel;html=1;align=center;verticalAlign=middle;resizable=0;points=[];" vertex="1" connectable="0" parent="tCOYeDjUsTyxgK16auZj-9">
          <mxGeometry x="-0.525" y="3" relative="1" as="geometry">
            <mxPoint x="43" y="-17" as="offset" />
          </mxGeometry>
        </mxCell>
        <mxCell id="tCOYeDjUsTyxgK16auZj-11" value="" style="shape=umlLifeline;perimeter=lifelinePerimeter;whiteSpace=wrap;html=1;container=1;dropTarget=0;collapsible=0;recursiveResize=0;outlineConnect=0;portConstraint=eastwest;newEdgeStyle={&quot;curved&quot;:0,&quot;rounded&quot;:0};participant=umlActor;size=40;" vertex="1" parent="1">
          <mxGeometry x="-30" y="10" width="20" height="300" as="geometry" />
        </mxCell>
        <mxCell id="tCOYeDjUsTyxgK16auZj-12" style="edgeStyle=elbowEdgeStyle;rounded=0;orthogonalLoop=1;jettySize=auto;html=1;elbow=vertical;curved=0;" edge="1" parent="1" target="tCOYeDjUsTyxgK16auZj-3">
          <mxGeometry relative="1" as="geometry">
            <mxPoint x="205" y="150" as="sourcePoint" />
            <mxPoint x="339.5" y="150" as="targetPoint" />
          </mxGeometry>
        </mxCell>
        <mxCell id="tCOYeDjUsTyxgK16auZj-13" value="3. Nếu Validate thành công,&amp;nbsp;&lt;div&gt;gửi HTTP request&amp;nbsp;&lt;div&gt;chỉnh sửa milestone&lt;/div&gt;&lt;/div&gt;" style="edgeLabel;html=1;align=center;verticalAlign=middle;resizable=0;points=[];" vertex="1" connectable="0" parent="tCOYeDjUsTyxgK16auZj-12">
          <mxGeometry x="-0.6342" y="4" relative="1" as="geometry">
            <mxPoint x="53" y="-26" as="offset" />
          </mxGeometry>
        </mxCell>
        <mxCell id="tCOYeDjUsTyxgK16auZj-14" style="edgeStyle=elbowEdgeStyle;rounded=0;orthogonalLoop=1;jettySize=auto;html=1;elbow=vertical;curved=0;" edge="1" parent="1" target="tCOYeDjUsTyxgK16auZj-6">
          <mxGeometry relative="1" as="geometry">
            <mxPoint x="384.5" y="140" as="sourcePoint" />
            <mxPoint x="509.5" y="140" as="targetPoint" />
            <Array as="points">
              <mxPoint x="439.5" y="160" />
            </Array>
          </mxGeometry>
        </mxCell>
        <mxCell id="tCOYeDjUsTyxgK16auZj-15" value="4.&amp;nbsp; Chuyển tiếp HTTP&amp;nbsp;&lt;div&gt;request chỉnh sửa&lt;/div&gt;&lt;div&gt;milestone&lt;/div&gt;" style="edgeLabel;html=1;align=center;verticalAlign=middle;resizable=0;points=[];" vertex="1" connectable="0" parent="tCOYeDjUsTyxgK16auZj-14">
          <mxGeometry x="-0.5104" y="4" relative="1" as="geometry">
            <mxPoint x="45" y="-26" as="offset" />
          </mxGeometry>
        </mxCell>
        <mxCell id="tCOYeDjUsTyxgK16auZj-16" style="edgeStyle=elbowEdgeStyle;rounded=0;orthogonalLoop=1;jettySize=auto;html=1;elbow=vertical;curved=0;" edge="1" parent="1">
          <mxGeometry relative="1" as="geometry">
            <mxPoint x="519.5" y="170" as="sourcePoint" />
            <mxPoint x="654.5" y="170" as="targetPoint" />
          </mxGeometry>
        </mxCell>
        <mxCell id="tCOYeDjUsTyxgK16auZj-17" value="5.Cập nhật record đã chỉnh&lt;div&gt;sửa vào database&lt;/div&gt;" style="edgeLabel;html=1;align=center;verticalAlign=middle;resizable=0;points=[];" vertex="1" connectable="0" parent="tCOYeDjUsTyxgK16auZj-16">
          <mxGeometry x="-0.5574" y="3" relative="1" as="geometry">
            <mxPoint x="41" y="-17" as="offset" />
          </mxGeometry>
        </mxCell>
        <mxCell id="tCOYeDjUsTyxgK16auZj-18" style="edgeStyle=elbowEdgeStyle;rounded=0;orthogonalLoop=1;jettySize=auto;html=1;elbow=vertical;curved=0;" edge="1" parent="1">
          <mxGeometry relative="1" as="geometry">
            <mxPoint x="654.5" y="200" as="sourcePoint" />
            <mxPoint x="519.5" y="200" as="targetPoint" />
          </mxGeometry>
        </mxCell>
        <mxCell id="tCOYeDjUsTyxgK16auZj-19" value="6. Xác nhận Cập nhật&amp;nbsp;&lt;div&gt;thành công&lt;/div&gt;" style="edgeLabel;html=1;align=center;verticalAlign=middle;resizable=0;points=[];" vertex="1" connectable="0" parent="tCOYeDjUsTyxgK16auZj-18">
          <mxGeometry x="0.3541" y="-5" relative="1" as="geometry">
            <mxPoint x="26" y="-10" as="offset" />
          </mxGeometry>
        </mxCell>
        <mxCell id="tCOYeDjUsTyxgK16auZj-20" style="edgeStyle=elbowEdgeStyle;rounded=0;orthogonalLoop=1;jettySize=auto;html=1;elbow=horizontal;curved=0;" edge="1" parent="1">
          <mxGeometry relative="1" as="geometry">
            <mxPoint x="509.5" y="210" as="sourcePoint" />
            <mxPoint x="379" y="210" as="targetPoint" />
          </mxGeometry>
        </mxCell>
        <mxCell id="tCOYeDjUsTyxgK16auZj-21" value="7.Trả kết quả Edit&amp;nbsp;&lt;div&gt;thành công&lt;/div&gt;" style="edgeLabel;html=1;align=center;verticalAlign=middle;resizable=0;points=[];" vertex="1" connectable="0" parent="tCOYeDjUsTyxgK16auZj-20">
          <mxGeometry x="0.3548" y="-2" relative="1" as="geometry">
            <mxPoint x="18" y="-18" as="offset" />
          </mxGeometry>
        </mxCell>
        <mxCell id="tCOYeDjUsTyxgK16auZj-22" style="edgeStyle=elbowEdgeStyle;rounded=0;orthogonalLoop=1;jettySize=auto;html=1;elbow=vertical;curved=0;" edge="1" parent="1" source="tCOYeDjUsTyxgK16auZj-3">
          <mxGeometry relative="1" as="geometry">
            <mxPoint x="335" y="230" as="sourcePoint" />
            <mxPoint x="199.5" y="230" as="targetPoint" />
          </mxGeometry>
        </mxCell>
        <mxCell id="tCOYeDjUsTyxgK16auZj-23" value="&lt;span style=&quot;color: rgba(0, 0, 0, 0); font-family: monospace; font-size: 0px; text-align: start; background-color: rgb(251, 251, 251);&quot;&gt;%3CmxGraphModel%3E%3Croot%3E%3CmxCell%20id%3D%220%22%2F%3E%3CmxCell%20id%3D%221%22%20parent%3D%220%22%2F%3E%3CmxCell%20id%3D%222%22%20value%3D%226.Tr%E1%BA%A3%20k%E1%BA%BFt%20qu%E1%BA%A3%26amp%3Bnbsp%3B%26lt%3Bdiv%26gt%3Bth%C3%A0nh%20c%C3%B4ng%26lt%3B%2Fdiv%26gt%3B%22%20style%3D%22edgeLabel%3Bhtml%3D1%3Balign%3Dcenter%3BverticalAlign%3Dmiddle%3Bresizable%3D0%3Bpoints%3D%5B%5D%3B%22%20vertex%3D%221%22%20connectable%3D%220%22%20parent%3D%221%22%3E%3CmxGeometry%20x%3D%22400%22%20y%3D%22190%22%20as%3D%22geometry%22%2F%3E%3C%2FmxCell%3E%3C%2Froot%3E%3C%2FmxGraphModel%3E&lt;/span&gt;" style="edgeLabel;html=1;align=center;verticalAlign=middle;resizable=0;points=[];" vertex="1" connectable="0" parent="tCOYeDjUsTyxgK16auZj-22">
          <mxGeometry x="0.231" y="-1" relative="1" as="geometry">
            <mxPoint as="offset" />
          </mxGeometry>
        </mxCell>
        <mxCell id="tCOYeDjUsTyxgK16auZj-24" value="8.Trả kết quả Edit&amp;nbsp;&lt;div&gt;thành công&lt;/div&gt;" style="edgeLabel;html=1;align=center;verticalAlign=middle;resizable=0;points=[];" vertex="1" connectable="0" parent="tCOYeDjUsTyxgK16auZj-22">
          <mxGeometry x="0.1867" y="-3" relative="1" as="geometry">
            <mxPoint x="15" y="-17" as="offset" />
          </mxGeometry>
        </mxCell>
        <mxCell id="tCOYeDjUsTyxgK16auZj-25" style="edgeStyle=elbowEdgeStyle;rounded=0;orthogonalLoop=1;jettySize=auto;html=1;elbow=vertical;curved=0;" edge="1" parent="1">
          <mxGeometry relative="1" as="geometry">
            <mxPoint x="195" y="250" as="sourcePoint" />
            <mxPoint x="-20.5" y="250" as="targetPoint" />
          </mxGeometry>
        </mxCell>
        <mxCell id="tCOYeDjUsTyxgK16auZj-26" value="9.Display thông báo success&amp;nbsp;&lt;div&gt;và refresh lại Milestone display&lt;/div&gt;" style="edgeLabel;html=1;align=center;verticalAlign=middle;resizable=0;points=[];" vertex="1" connectable="0" parent="tCOYeDjUsTyxgK16auZj-25">
          <mxGeometry x="0.3587" y="-2" relative="1" as="geometry">
            <mxPoint x="41" y="-18" as="offset" />
          </mxGeometry>
        </mxCell>
        <mxCell id="tCOYeDjUsTyxgK16auZj-27" value="PM" style="text;html=1;align=center;verticalAlign=middle;resizable=0;points=[];autosize=1;strokeColor=none;fillColor=none;" vertex="1" parent="1">
          <mxGeometry x="-65" y="20" width="40" height="30" as="geometry" />
        </mxCell>
        <mxCell id="tCOYeDjUsTyxgK16auZj-30" style="edgeStyle=elbowEdgeStyle;rounded=0;orthogonalLoop=1;jettySize=auto;html=1;elbow=vertical;curved=0;" edge="1" parent="1">
          <mxGeometry relative="1" as="geometry">
            <mxPoint x="190.5" y="140" as="sourcePoint" />
            <mxPoint x="-25" y="140" as="targetPoint" />
            <Array as="points">
              <mxPoint x="88.5" y="140" />
            </Array>
          </mxGeometry>
        </mxCell>
        <mxCell id="tCOYeDjUsTyxgK16auZj-31" value="2. Nếu Validate form thất&amp;nbsp;&lt;div&gt;bại, yêu cầu submit lại&lt;/div&gt;" style="edgeLabel;html=1;align=center;verticalAlign=middle;resizable=0;points=[];" vertex="1" connectable="0" parent="tCOYeDjUsTyxgK16auZj-30">
          <mxGeometry x="0.5647" y="-2" relative="1" as="geometry">
            <mxPoint x="54" y="-18" as="offset" />
          </mxGeometry>
        </mxCell>
      </root>
    </mxGraphModel>
  </diagram>
  <diagram id="zRSVzBLawQ6Or9h6CNa9" name="sd 3">
    <mxGraphModel dx="1900" dy="522" grid="1" gridSize="10" guides="1" tooltips="1" connect="1" arrows="1" fold="1" page="1" pageScale="1" pageWidth="850" pageHeight="1100" math="0" shadow="0">
      <root>
        <mxCell id="0" />
        <mxCell id="1" parent="0" />
        <mxCell id="69hlezlwK2bOkz_nLcNQ-1" value="Client" style="shape=umlLifeline;perimeter=lifelinePerimeter;whiteSpace=wrap;html=1;container=0;dropTarget=0;collapsible=0;recursiveResize=0;outlineConnect=0;portConstraint=eastwest;newEdgeStyle={&quot;edgeStyle&quot;:&quot;elbowEdgeStyle&quot;,&quot;elbow&quot;:&quot;vertical&quot;,&quot;curved&quot;:0,&quot;rounded&quot;:0};" vertex="1" parent="1">
          <mxGeometry x="185" y="30" width="100" height="300" as="geometry" />
        </mxCell>
        <mxCell id="69hlezlwK2bOkz_nLcNQ-2" value="" style="html=1;points=[];perimeter=orthogonalPerimeter;outlineConnect=0;targetShapes=umlLifeline;portConstraint=eastwest;newEdgeStyle={&quot;edgeStyle&quot;:&quot;elbowEdgeStyle&quot;,&quot;elbow&quot;:&quot;vertical&quot;,&quot;curved&quot;:0,&quot;rounded&quot;:0};" vertex="1" parent="69hlezlwK2bOkz_nLcNQ-1">
          <mxGeometry x="45" y="70" width="10" height="190" as="geometry" />
        </mxCell>
        <mxCell id="69hlezlwK2bOkz_nLcNQ-3" value="API" style="shape=umlLifeline;perimeter=lifelinePerimeter;whiteSpace=wrap;html=1;container=0;dropTarget=0;collapsible=0;recursiveResize=0;outlineConnect=0;portConstraint=eastwest;newEdgeStyle={&quot;edgeStyle&quot;:&quot;elbowEdgeStyle&quot;,&quot;elbow&quot;:&quot;vertical&quot;,&quot;curved&quot;:0,&quot;rounded&quot;:0};" vertex="1" parent="1">
          <mxGeometry x="364.5" y="30" width="100" height="300" as="geometry" />
        </mxCell>
        <mxCell id="69hlezlwK2bOkz_nLcNQ-4" value="" style="html=1;points=[];perimeter=orthogonalPerimeter;outlineConnect=0;targetShapes=umlLifeline;portConstraint=eastwest;newEdgeStyle={&quot;edgeStyle&quot;:&quot;elbowEdgeStyle&quot;,&quot;elbow&quot;:&quot;vertical&quot;,&quot;curved&quot;:0,&quot;rounded&quot;:0};" vertex="1" parent="69hlezlwK2bOkz_nLcNQ-3">
          <mxGeometry x="45" y="100" width="10" height="130" as="geometry" />
        </mxCell>
        <mxCell id="69hlezlwK2bOkz_nLcNQ-5" value="Milestone&lt;br&gt;Microservice" style="shape=umlLifeline;perimeter=lifelinePerimeter;whiteSpace=wrap;html=1;container=0;dropTarget=0;collapsible=0;recursiveResize=0;outlineConnect=0;portConstraint=eastwest;newEdgeStyle={&quot;edgeStyle&quot;:&quot;elbowEdgeStyle&quot;,&quot;elbow&quot;:&quot;vertical&quot;,&quot;curved&quot;:0,&quot;rounded&quot;:0};" vertex="1" parent="1">
          <mxGeometry x="499.5" y="30" width="100" height="300" as="geometry" />
        </mxCell>
        <mxCell id="69hlezlwK2bOkz_nLcNQ-6" value="" style="html=1;points=[];perimeter=orthogonalPerimeter;outlineConnect=0;targetShapes=umlLifeline;portConstraint=eastwest;newEdgeStyle={&quot;edgeStyle&quot;:&quot;elbowEdgeStyle&quot;,&quot;elbow&quot;:&quot;vertical&quot;,&quot;curved&quot;:0,&quot;rounded&quot;:0};" vertex="1" parent="69hlezlwK2bOkz_nLcNQ-5">
          <mxGeometry x="45" y="120" width="10" height="90" as="geometry" />
        </mxCell>
        <mxCell id="69hlezlwK2bOkz_nLcNQ-7" value="Database" style="shape=umlLifeline;perimeter=lifelinePerimeter;whiteSpace=wrap;html=1;container=0;dropTarget=0;collapsible=0;recursiveResize=0;outlineConnect=0;portConstraint=eastwest;newEdgeStyle={&quot;edgeStyle&quot;:&quot;elbowEdgeStyle&quot;,&quot;elbow&quot;:&quot;vertical&quot;,&quot;curved&quot;:0,&quot;rounded&quot;:0};" vertex="1" parent="1">
          <mxGeometry x="655" y="30" width="100" height="300" as="geometry" />
        </mxCell>
        <mxCell id="69hlezlwK2bOkz_nLcNQ-8" value="" style="html=1;points=[];perimeter=orthogonalPerimeter;outlineConnect=0;targetShapes=umlLifeline;portConstraint=eastwest;newEdgeStyle={&quot;edgeStyle&quot;:&quot;elbowEdgeStyle&quot;,&quot;elbow&quot;:&quot;vertical&quot;,&quot;curved&quot;:0,&quot;rounded&quot;:0};" vertex="1" parent="69hlezlwK2bOkz_nLcNQ-7">
          <mxGeometry x="45" y="150" width="10" height="50" as="geometry" />
        </mxCell>
        <mxCell id="69hlezlwK2bOkz_nLcNQ-9" style="edgeStyle=orthogonalEdgeStyle;rounded=0;orthogonalLoop=1;jettySize=auto;html=1;curved=0;" edge="1" parent="1" source="69hlezlwK2bOkz_nLcNQ-11" target="69hlezlwK2bOkz_nLcNQ-1">
          <mxGeometry relative="1" as="geometry">
            <mxPoint x="155" y="180" as="targetPoint" />
            <Array as="points">
              <mxPoint x="175" y="120" />
              <mxPoint x="175" y="120" />
            </Array>
          </mxGeometry>
        </mxCell>
        <mxCell id="69hlezlwK2bOkz_nLcNQ-10" value="1. PM chọn một milestone và bấm&lt;div&gt;&quot;Đóng/Mở&quot;, sau đó nhấp Xác nhận&lt;/div&gt;" style="edgeLabel;html=1;align=center;verticalAlign=middle;resizable=0;points=[];" vertex="1" connectable="0" parent="69hlezlwK2bOkz_nLcNQ-9">
          <mxGeometry x="-0.525" y="3" relative="1" as="geometry">
            <mxPoint x="43" y="-17" as="offset" />
          </mxGeometry>
        </mxCell>
        <mxCell id="69hlezlwK2bOkz_nLcNQ-11" value="" style="shape=umlLifeline;perimeter=lifelinePerimeter;whiteSpace=wrap;html=1;container=1;dropTarget=0;collapsible=0;recursiveResize=0;outlineConnect=0;portConstraint=eastwest;newEdgeStyle={&quot;curved&quot;:0,&quot;rounded&quot;:0};participant=umlActor;size=40;" vertex="1" parent="1">
          <mxGeometry x="5" y="30" width="20" height="300" as="geometry" />
        </mxCell>
        <mxCell id="69hlezlwK2bOkz_nLcNQ-12" style="edgeStyle=elbowEdgeStyle;rounded=0;orthogonalLoop=1;jettySize=auto;html=1;elbow=vertical;curved=0;" edge="1" parent="1" target="69hlezlwK2bOkz_nLcNQ-3">
          <mxGeometry relative="1" as="geometry">
            <mxPoint x="240" y="170" as="sourcePoint" />
            <mxPoint x="374.5" y="170" as="targetPoint" />
          </mxGeometry>
        </mxCell>
        <mxCell id="69hlezlwK2bOkz_nLcNQ-13" value="2. Gửi HTTP request&amp;nbsp;&lt;div&gt;&lt;div&gt;cập nhật trạng thái milestone&lt;/div&gt;&lt;/div&gt;" style="edgeLabel;html=1;align=center;verticalAlign=middle;resizable=0;points=[];" vertex="1" connectable="0" parent="69hlezlwK2bOkz_nLcNQ-12">
          <mxGeometry x="-0.6342" y="4" relative="1" as="geometry">
            <mxPoint x="53" y="-26" as="offset" />
          </mxGeometry>
        </mxCell>
        <mxCell id="69hlezlwK2bOkz_nLcNQ-14" style="edgeStyle=elbowEdgeStyle;rounded=0;orthogonalLoop=1;jettySize=auto;html=1;elbow=vertical;curved=0;" edge="1" parent="1" target="69hlezlwK2bOkz_nLcNQ-6">
          <mxGeometry relative="1" as="geometry">
            <mxPoint x="419.5" y="160" as="sourcePoint" />
            <mxPoint x="544.5" y="160" as="targetPoint" />
            <Array as="points">
              <mxPoint x="474.5" y="180" />
            </Array>
          </mxGeometry>
        </mxCell>
        <mxCell id="69hlezlwK2bOkz_nLcNQ-15" value="3.&amp;nbsp; Chuyển tiếp HTTP&amp;nbsp;&lt;div&gt;request cập nhật&amp;nbsp;&lt;/div&gt;&lt;div&gt;trạng thái milestone&lt;/div&gt;" style="edgeLabel;html=1;align=center;verticalAlign=middle;resizable=0;points=[];" vertex="1" connectable="0" parent="69hlezlwK2bOkz_nLcNQ-14">
          <mxGeometry x="-0.5104" y="4" relative="1" as="geometry">
            <mxPoint x="45" y="-26" as="offset" />
          </mxGeometry>
        </mxCell>
        <mxCell id="69hlezlwK2bOkz_nLcNQ-16" style="edgeStyle=elbowEdgeStyle;rounded=0;orthogonalLoop=1;jettySize=auto;html=1;elbow=vertical;curved=0;" edge="1" parent="1">
          <mxGeometry relative="1" as="geometry">
            <mxPoint x="554.5" y="190" as="sourcePoint" />
            <mxPoint x="689.5" y="190" as="targetPoint" />
          </mxGeometry>
        </mxCell>
        <mxCell id="69hlezlwK2bOkz_nLcNQ-17" value="4.Truy vấn và cập nhật trạng&amp;nbsp;&lt;div&gt;thái vào database&lt;/div&gt;" style="edgeLabel;html=1;align=center;verticalAlign=middle;resizable=0;points=[];" vertex="1" connectable="0" parent="69hlezlwK2bOkz_nLcNQ-16">
          <mxGeometry x="-0.5574" y="3" relative="1" as="geometry">
            <mxPoint x="41" y="-17" as="offset" />
          </mxGeometry>
        </mxCell>
        <mxCell id="69hlezlwK2bOkz_nLcNQ-18" style="edgeStyle=elbowEdgeStyle;rounded=0;orthogonalLoop=1;jettySize=auto;html=1;elbow=vertical;curved=0;" edge="1" parent="1">
          <mxGeometry relative="1" as="geometry">
            <mxPoint x="689.5" y="220" as="sourcePoint" />
            <mxPoint x="554.5" y="220" as="targetPoint" />
          </mxGeometry>
        </mxCell>
        <mxCell id="69hlezlwK2bOkz_nLcNQ-19" value="5. Xác nhận Cập nhật&amp;nbsp;&lt;div&gt;thành công&lt;/div&gt;" style="edgeLabel;html=1;align=center;verticalAlign=middle;resizable=0;points=[];" vertex="1" connectable="0" parent="69hlezlwK2bOkz_nLcNQ-18">
          <mxGeometry x="0.3541" y="-5" relative="1" as="geometry">
            <mxPoint x="26" y="-10" as="offset" />
          </mxGeometry>
        </mxCell>
        <mxCell id="69hlezlwK2bOkz_nLcNQ-20" style="edgeStyle=elbowEdgeStyle;rounded=0;orthogonalLoop=1;jettySize=auto;html=1;elbow=horizontal;curved=0;" edge="1" parent="1">
          <mxGeometry relative="1" as="geometry">
            <mxPoint x="544.5" y="230" as="sourcePoint" />
            <mxPoint x="414" y="230" as="targetPoint" />
          </mxGeometry>
        </mxCell>
        <mxCell id="69hlezlwK2bOkz_nLcNQ-21" value="6.Trả kết quả Edit&amp;nbsp;&lt;div&gt;thành công&lt;/div&gt;" style="edgeLabel;html=1;align=center;verticalAlign=middle;resizable=0;points=[];" vertex="1" connectable="0" parent="69hlezlwK2bOkz_nLcNQ-20">
          <mxGeometry x="0.3548" y="-2" relative="1" as="geometry">
            <mxPoint x="18" y="-18" as="offset" />
          </mxGeometry>
        </mxCell>
        <mxCell id="69hlezlwK2bOkz_nLcNQ-22" style="edgeStyle=elbowEdgeStyle;rounded=0;orthogonalLoop=1;jettySize=auto;html=1;elbow=vertical;curved=0;" edge="1" parent="1" source="69hlezlwK2bOkz_nLcNQ-3">
          <mxGeometry relative="1" as="geometry">
            <mxPoint x="370" y="250" as="sourcePoint" />
            <mxPoint x="234.5" y="250" as="targetPoint" />
          </mxGeometry>
        </mxCell>
        <mxCell id="69hlezlwK2bOkz_nLcNQ-23" value="&lt;span style=&quot;color: rgba(0, 0, 0, 0); font-family: monospace; font-size: 0px; text-align: start; background-color: rgb(251, 251, 251);&quot;&gt;%3CmxGraphModel%3E%3Croot%3E%3CmxCell%20id%3D%220%22%2F%3E%3CmxCell%20id%3D%221%22%20parent%3D%220%22%2F%3E%3CmxCell%20id%3D%222%22%20value%3D%226.Tr%E1%BA%A3%20k%E1%BA%BFt%20qu%E1%BA%A3%26amp%3Bnbsp%3B%26lt%3Bdiv%26gt%3Bth%C3%A0nh%20c%C3%B4ng%26lt%3B%2Fdiv%26gt%3B%22%20style%3D%22edgeLabel%3Bhtml%3D1%3Balign%3Dcenter%3BverticalAlign%3Dmiddle%3Bresizable%3D0%3Bpoints%3D%5B%5D%3B%22%20vertex%3D%221%22%20connectable%3D%220%22%20parent%3D%221%22%3E%3CmxGeometry%20x%3D%22400%22%20y%3D%22190%22%20as%3D%22geometry%22%2F%3E%3C%2FmxCell%3E%3C%2Froot%3E%3C%2FmxGraphModel%3E&lt;/span&gt;" style="edgeLabel;html=1;align=center;verticalAlign=middle;resizable=0;points=[];" vertex="1" connectable="0" parent="69hlezlwK2bOkz_nLcNQ-22">
          <mxGeometry x="0.231" y="-1" relative="1" as="geometry">
            <mxPoint as="offset" />
          </mxGeometry>
        </mxCell>
        <mxCell id="69hlezlwK2bOkz_nLcNQ-24" value="7.Trả kết quả Edit&amp;nbsp;&lt;div&gt;thành công&lt;/div&gt;" style="edgeLabel;html=1;align=center;verticalAlign=middle;resizable=0;points=[];" vertex="1" connectable="0" parent="69hlezlwK2bOkz_nLcNQ-22">
          <mxGeometry x="0.1867" y="-3" relative="1" as="geometry">
            <mxPoint x="15" y="-17" as="offset" />
          </mxGeometry>
        </mxCell>
        <mxCell id="69hlezlwK2bOkz_nLcNQ-25" style="edgeStyle=elbowEdgeStyle;rounded=0;orthogonalLoop=1;jettySize=auto;html=1;elbow=vertical;curved=0;" edge="1" parent="1">
          <mxGeometry relative="1" as="geometry">
            <mxPoint x="230" y="270" as="sourcePoint" />
            <mxPoint x="14.5" y="270" as="targetPoint" />
          </mxGeometry>
        </mxCell>
        <mxCell id="69hlezlwK2bOkz_nLcNQ-26" value="8. Client báo cập nhật thành công và&amp;nbsp;&lt;div&gt;refresh lại view milestone&lt;/div&gt;" style="edgeLabel;html=1;align=center;verticalAlign=middle;resizable=0;points=[];" vertex="1" connectable="0" parent="69hlezlwK2bOkz_nLcNQ-25">
          <mxGeometry x="0.3587" y="-2" relative="1" as="geometry">
            <mxPoint x="41" y="-18" as="offset" />
          </mxGeometry>
        </mxCell>
        <mxCell id="69hlezlwK2bOkz_nLcNQ-27" value="PM" style="text;html=1;align=center;verticalAlign=middle;resizable=0;points=[];autosize=1;strokeColor=none;fillColor=none;" vertex="1" parent="1">
          <mxGeometry x="-30" y="40" width="40" height="30" as="geometry" />
        </mxCell>
      </root>
    </mxGraphModel>
  </diagram>
  <diagram id="XZhHDjznOVwkNLxiV0jY" name="SD 4">
    <mxGraphModel dx="1900" dy="522" grid="1" gridSize="10" guides="1" tooltips="1" connect="1" arrows="1" fold="1" page="1" pageScale="1" pageWidth="850" pageHeight="1100" math="0" shadow="0">
      <root>
        <mxCell id="0" />
        <mxCell id="1" parent="0" />
        <mxCell id="1ASK0se7rpLaMMqf2Cs3-1" value="Client" style="shape=umlLifeline;perimeter=lifelinePerimeter;whiteSpace=wrap;html=1;container=0;dropTarget=0;collapsible=0;recursiveResize=0;outlineConnect=0;portConstraint=eastwest;newEdgeStyle={&quot;edgeStyle&quot;:&quot;elbowEdgeStyle&quot;,&quot;elbow&quot;:&quot;vertical&quot;,&quot;curved&quot;:0,&quot;rounded&quot;:0};" vertex="1" parent="1">
          <mxGeometry x="150" y="10" width="100" height="300" as="geometry" />
        </mxCell>
        <mxCell id="1ASK0se7rpLaMMqf2Cs3-2" value="" style="html=1;points=[];perimeter=orthogonalPerimeter;outlineConnect=0;targetShapes=umlLifeline;portConstraint=eastwest;newEdgeStyle={&quot;edgeStyle&quot;:&quot;elbowEdgeStyle&quot;,&quot;elbow&quot;:&quot;vertical&quot;,&quot;curved&quot;:0,&quot;rounded&quot;:0};" vertex="1" parent="1ASK0se7rpLaMMqf2Cs3-1">
          <mxGeometry x="45" y="70" width="10" height="190" as="geometry" />
        </mxCell>
        <mxCell id="1ASK0se7rpLaMMqf2Cs3-3" value="API" style="shape=umlLifeline;perimeter=lifelinePerimeter;whiteSpace=wrap;html=1;container=0;dropTarget=0;collapsible=0;recursiveResize=0;outlineConnect=0;portConstraint=eastwest;newEdgeStyle={&quot;edgeStyle&quot;:&quot;elbowEdgeStyle&quot;,&quot;elbow&quot;:&quot;vertical&quot;,&quot;curved&quot;:0,&quot;rounded&quot;:0};" vertex="1" parent="1">
          <mxGeometry x="329.5" y="10" width="100" height="300" as="geometry" />
        </mxCell>
        <mxCell id="1ASK0se7rpLaMMqf2Cs3-4" value="" style="html=1;points=[];perimeter=orthogonalPerimeter;outlineConnect=0;targetShapes=umlLifeline;portConstraint=eastwest;newEdgeStyle={&quot;edgeStyle&quot;:&quot;elbowEdgeStyle&quot;,&quot;elbow&quot;:&quot;vertical&quot;,&quot;curved&quot;:0,&quot;rounded&quot;:0};" vertex="1" parent="1ASK0se7rpLaMMqf2Cs3-3">
          <mxGeometry x="45" y="100" width="10" height="130" as="geometry" />
        </mxCell>
        <mxCell id="1ASK0se7rpLaMMqf2Cs3-5" value="Milestone&lt;br&gt;Microservice" style="shape=umlLifeline;perimeter=lifelinePerimeter;whiteSpace=wrap;html=1;container=0;dropTarget=0;collapsible=0;recursiveResize=0;outlineConnect=0;portConstraint=eastwest;newEdgeStyle={&quot;edgeStyle&quot;:&quot;elbowEdgeStyle&quot;,&quot;elbow&quot;:&quot;vertical&quot;,&quot;curved&quot;:0,&quot;rounded&quot;:0};" vertex="1" parent="1">
          <mxGeometry x="464.5" y="10" width="100" height="300" as="geometry" />
        </mxCell>
        <mxCell id="1ASK0se7rpLaMMqf2Cs3-6" value="" style="html=1;points=[];perimeter=orthogonalPerimeter;outlineConnect=0;targetShapes=umlLifeline;portConstraint=eastwest;newEdgeStyle={&quot;edgeStyle&quot;:&quot;elbowEdgeStyle&quot;,&quot;elbow&quot;:&quot;vertical&quot;,&quot;curved&quot;:0,&quot;rounded&quot;:0};" vertex="1" parent="1ASK0se7rpLaMMqf2Cs3-5">
          <mxGeometry x="45" y="120" width="10" height="90" as="geometry" />
        </mxCell>
        <mxCell id="1ASK0se7rpLaMMqf2Cs3-7" value="Database" style="shape=umlLifeline;perimeter=lifelinePerimeter;whiteSpace=wrap;html=1;container=0;dropTarget=0;collapsible=0;recursiveResize=0;outlineConnect=0;portConstraint=eastwest;newEdgeStyle={&quot;edgeStyle&quot;:&quot;elbowEdgeStyle&quot;,&quot;elbow&quot;:&quot;vertical&quot;,&quot;curved&quot;:0,&quot;rounded&quot;:0};" vertex="1" parent="1">
          <mxGeometry x="640" y="10" width="100" height="300" as="geometry" />
        </mxCell>
        <mxCell id="1ASK0se7rpLaMMqf2Cs3-8" value="" style="html=1;points=[];perimeter=orthogonalPerimeter;outlineConnect=0;targetShapes=umlLifeline;portConstraint=eastwest;newEdgeStyle={&quot;edgeStyle&quot;:&quot;elbowEdgeStyle&quot;,&quot;elbow&quot;:&quot;vertical&quot;,&quot;curved&quot;:0,&quot;rounded&quot;:0};" vertex="1" parent="1ASK0se7rpLaMMqf2Cs3-7">
          <mxGeometry x="45" y="150" width="10" height="50" as="geometry" />
        </mxCell>
        <mxCell id="1ASK0se7rpLaMMqf2Cs3-9" style="edgeStyle=orthogonalEdgeStyle;rounded=0;orthogonalLoop=1;jettySize=auto;html=1;curved=0;" edge="1" parent="1" source="1ASK0se7rpLaMMqf2Cs3-11" target="1ASK0se7rpLaMMqf2Cs3-1">
          <mxGeometry relative="1" as="geometry">
            <mxPoint x="120" y="160" as="targetPoint" />
            <Array as="points">
              <mxPoint x="140" y="100" />
              <mxPoint x="140" y="100" />
            </Array>
          </mxGeometry>
        </mxCell>
        <mxCell id="1ASK0se7rpLaMMqf2Cs3-10" value="1. User nhấp chọn một Milestone&amp;nbsp;&lt;div&gt;từ danh sách&lt;br&gt;&lt;/div&gt;" style="edgeLabel;html=1;align=center;verticalAlign=middle;resizable=0;points=[];" vertex="1" connectable="0" parent="1ASK0se7rpLaMMqf2Cs3-9">
          <mxGeometry x="-0.525" y="3" relative="1" as="geometry">
            <mxPoint x="43" y="-17" as="offset" />
          </mxGeometry>
        </mxCell>
        <mxCell id="1ASK0se7rpLaMMqf2Cs3-11" value="" style="shape=umlLifeline;perimeter=lifelinePerimeter;whiteSpace=wrap;html=1;container=1;dropTarget=0;collapsible=0;recursiveResize=0;outlineConnect=0;portConstraint=eastwest;newEdgeStyle={&quot;curved&quot;:0,&quot;rounded&quot;:0};participant=umlActor;size=40;" vertex="1" parent="1">
          <mxGeometry x="-30" y="10" width="20" height="300" as="geometry" />
        </mxCell>
        <mxCell id="1ASK0se7rpLaMMqf2Cs3-12" style="edgeStyle=elbowEdgeStyle;rounded=0;orthogonalLoop=1;jettySize=auto;html=1;elbow=vertical;curved=0;" edge="1" parent="1" target="1ASK0se7rpLaMMqf2Cs3-3">
          <mxGeometry relative="1" as="geometry">
            <mxPoint x="205" y="150" as="sourcePoint" />
            <mxPoint x="339.5" y="150" as="targetPoint" />
          </mxGeometry>
        </mxCell>
        <mxCell id="1ASK0se7rpLaMMqf2Cs3-13" value="2. Gửi HTTP request view&lt;div&gt;&amp;nbsp;milestone đến API&lt;/div&gt;" style="edgeLabel;html=1;align=center;verticalAlign=middle;resizable=0;points=[];" vertex="1" connectable="0" parent="1ASK0se7rpLaMMqf2Cs3-12">
          <mxGeometry x="-0.6342" y="4" relative="1" as="geometry">
            <mxPoint x="53" y="-26" as="offset" />
          </mxGeometry>
        </mxCell>
        <mxCell id="1ASK0se7rpLaMMqf2Cs3-14" style="edgeStyle=elbowEdgeStyle;rounded=0;orthogonalLoop=1;jettySize=auto;html=1;elbow=vertical;curved=0;" edge="1" parent="1" target="1ASK0se7rpLaMMqf2Cs3-6">
          <mxGeometry relative="1" as="geometry">
            <mxPoint x="384.5" y="140" as="sourcePoint" />
            <mxPoint x="509.5" y="140" as="targetPoint" />
            <Array as="points">
              <mxPoint x="439.5" y="160" />
            </Array>
          </mxGeometry>
        </mxCell>
        <mxCell id="1ASK0se7rpLaMMqf2Cs3-15" value="3.&amp;nbsp; Chuyển tiếp HTTP&amp;nbsp;&lt;div&gt;request view&lt;/div&gt;&lt;div&gt;milestone&lt;/div&gt;" style="edgeLabel;html=1;align=center;verticalAlign=middle;resizable=0;points=[];" vertex="1" connectable="0" parent="1ASK0se7rpLaMMqf2Cs3-14">
          <mxGeometry x="-0.5104" y="4" relative="1" as="geometry">
            <mxPoint x="45" y="-26" as="offset" />
          </mxGeometry>
        </mxCell>
        <mxCell id="1ASK0se7rpLaMMqf2Cs3-16" style="edgeStyle=elbowEdgeStyle;rounded=0;orthogonalLoop=1;jettySize=auto;html=1;elbow=vertical;curved=0;" edge="1" parent="1" target="1ASK0se7rpLaMMqf2Cs3-7">
          <mxGeometry relative="1" as="geometry">
            <mxPoint x="519.5" y="170" as="sourcePoint" />
            <mxPoint x="654.5" y="170" as="targetPoint" />
          </mxGeometry>
        </mxCell>
        <mxCell id="1ASK0se7rpLaMMqf2Cs3-17" value="4.Truy vấn record Milestone&amp;nbsp;&lt;div&gt;và&amp;nbsp; các dữ liệu liên&amp;nbsp;&lt;/div&gt;&lt;div&gt;quan từ database&lt;/div&gt;" style="edgeLabel;html=1;align=center;verticalAlign=middle;resizable=0;points=[];" vertex="1" connectable="0" parent="1ASK0se7rpLaMMqf2Cs3-16">
          <mxGeometry x="-0.5574" y="3" relative="1" as="geometry">
            <mxPoint x="61" y="-27" as="offset" />
          </mxGeometry>
        </mxCell>
        <mxCell id="1ASK0se7rpLaMMqf2Cs3-18" style="edgeStyle=elbowEdgeStyle;rounded=0;orthogonalLoop=1;jettySize=auto;html=1;elbow=vertical;curved=0;" edge="1" parent="1" source="1ASK0se7rpLaMMqf2Cs3-8">
          <mxGeometry relative="1" as="geometry">
            <mxPoint x="654.5" y="200" as="sourcePoint" />
            <mxPoint x="519.5" y="200" as="targetPoint" />
          </mxGeometry>
        </mxCell>
        <mxCell id="1ASK0se7rpLaMMqf2Cs3-19" value="5. Trả truy vấn thành công&amp;nbsp;&lt;div&gt;về cho service&lt;/div&gt;" style="edgeLabel;html=1;align=center;verticalAlign=middle;resizable=0;points=[];" vertex="1" connectable="0" parent="1ASK0se7rpLaMMqf2Cs3-18">
          <mxGeometry x="0.3541" y="-5" relative="1" as="geometry">
            <mxPoint x="26" y="-10" as="offset" />
          </mxGeometry>
        </mxCell>
        <mxCell id="1ASK0se7rpLaMMqf2Cs3-20" style="edgeStyle=elbowEdgeStyle;rounded=0;orthogonalLoop=1;jettySize=auto;html=1;elbow=horizontal;curved=0;" edge="1" parent="1">
          <mxGeometry relative="1" as="geometry">
            <mxPoint x="509.5" y="210" as="sourcePoint" />
            <mxPoint x="379" y="210" as="targetPoint" />
          </mxGeometry>
        </mxCell>
        <mxCell id="1ASK0se7rpLaMMqf2Cs3-21" value="6. Trả kết quả truy vấn&lt;div&gt;thành công&lt;/div&gt;" style="edgeLabel;html=1;align=center;verticalAlign=middle;resizable=0;points=[];" vertex="1" connectable="0" parent="1ASK0se7rpLaMMqf2Cs3-20">
          <mxGeometry x="0.3548" y="-2" relative="1" as="geometry">
            <mxPoint x="18" y="-18" as="offset" />
          </mxGeometry>
        </mxCell>
        <mxCell id="1ASK0se7rpLaMMqf2Cs3-22" style="edgeStyle=elbowEdgeStyle;rounded=0;orthogonalLoop=1;jettySize=auto;html=1;elbow=vertical;curved=0;" edge="1" parent="1" source="1ASK0se7rpLaMMqf2Cs3-3">
          <mxGeometry relative="1" as="geometry">
            <mxPoint x="335" y="230" as="sourcePoint" />
            <mxPoint x="199.5" y="230" as="targetPoint" />
          </mxGeometry>
        </mxCell>
        <mxCell id="1ASK0se7rpLaMMqf2Cs3-23" value="&lt;span style=&quot;color: rgba(0, 0, 0, 0); font-family: monospace; font-size: 0px; text-align: start; background-color: rgb(251, 251, 251);&quot;&gt;%3CmxGraphModel%3E%3Croot%3E%3CmxCell%20id%3D%220%22%2F%3E%3CmxCell%20id%3D%221%22%20parent%3D%220%22%2F%3E%3CmxCell%20id%3D%222%22%20value%3D%226.Tr%E1%BA%A3%20k%E1%BA%BFt%20qu%E1%BA%A3%26amp%3Bnbsp%3B%26lt%3Bdiv%26gt%3Bth%C3%A0nh%20c%C3%B4ng%26lt%3B%2Fdiv%26gt%3B%22%20style%3D%22edgeLabel%3Bhtml%3D1%3Balign%3Dcenter%3BverticalAlign%3Dmiddle%3Bresizable%3D0%3Bpoints%3D%5B%5D%3B%22%20vertex%3D%221%22%20connectable%3D%220%22%20parent%3D%221%22%3E%3CmxGeometry%20x%3D%22400%22%20y%3D%22190%22%20as%3D%22geometry%22%2F%3E%3C%2FmxCell%3E%3C%2Froot%3E%3C%2FmxGraphModel%3E&lt;/span&gt;" style="edgeLabel;html=1;align=center;verticalAlign=middle;resizable=0;points=[];" vertex="1" connectable="0" parent="1ASK0se7rpLaMMqf2Cs3-22">
          <mxGeometry x="0.231" y="-1" relative="1" as="geometry">
            <mxPoint as="offset" />
          </mxGeometry>
        </mxCell>
        <mxCell id="1ASK0se7rpLaMMqf2Cs3-24" value="7.Trả kết quả Edit&amp;nbsp;&lt;div&gt;thành công&lt;/div&gt;" style="edgeLabel;html=1;align=center;verticalAlign=middle;resizable=0;points=[];" vertex="1" connectable="0" parent="1ASK0se7rpLaMMqf2Cs3-22">
          <mxGeometry x="0.1867" y="-3" relative="1" as="geometry">
            <mxPoint x="15" y="-17" as="offset" />
          </mxGeometry>
        </mxCell>
        <mxCell id="1ASK0se7rpLaMMqf2Cs3-25" style="edgeStyle=elbowEdgeStyle;rounded=0;orthogonalLoop=1;jettySize=auto;html=1;elbow=vertical;curved=0;" edge="1" parent="1">
          <mxGeometry relative="1" as="geometry">
            <mxPoint x="195" y="250" as="sourcePoint" />
            <mxPoint x="-20.5" y="250" as="targetPoint" />
          </mxGeometry>
        </mxCell>
        <mxCell id="1ASK0se7rpLaMMqf2Cs3-26" value="8.Dẫn User tới trang hiển thị đầy đủ&lt;div&gt;&amp;nbsp;thông tin của milestone&lt;/div&gt;" style="edgeLabel;html=1;align=center;verticalAlign=middle;resizable=0;points=[];" vertex="1" connectable="0" parent="1ASK0se7rpLaMMqf2Cs3-25">
          <mxGeometry x="0.3587" y="-2" relative="1" as="geometry">
            <mxPoint x="41" y="-18" as="offset" />
          </mxGeometry>
        </mxCell>
        <mxCell id="1ASK0se7rpLaMMqf2Cs3-27" value="PM hoặc Staff" style="text;html=1;align=center;verticalAlign=middle;resizable=0;points=[];autosize=1;strokeColor=none;fillColor=none;" vertex="1" parent="1">
          <mxGeometry x="-80" y="20" width="100" height="30" as="geometry" />
        </mxCell>
      </root>
    </mxGraphModel>
  </diagram>
  <diagram id="RP_bxayDIo9qcLi7F5Se" name="SD 5">
    <mxGraphModel dx="1900" dy="522" grid="1" gridSize="10" guides="1" tooltips="1" connect="1" arrows="1" fold="1" page="1" pageScale="1" pageWidth="850" pageHeight="1100" math="0" shadow="0">
      <root>
        <mxCell id="0" />
        <mxCell id="1" parent="0" />
        <mxCell id="Wys04pJ1Q-3vr8qPE6xg-1" value="Client" style="shape=umlLifeline;perimeter=lifelinePerimeter;whiteSpace=wrap;html=1;container=0;dropTarget=0;collapsible=0;recursiveResize=0;outlineConnect=0;portConstraint=eastwest;newEdgeStyle={&quot;edgeStyle&quot;:&quot;elbowEdgeStyle&quot;,&quot;elbow&quot;:&quot;vertical&quot;,&quot;curved&quot;:0,&quot;rounded&quot;:0};" vertex="1" parent="1">
          <mxGeometry x="150" y="10" width="100" height="290" as="geometry" />
        </mxCell>
        <mxCell id="Wys04pJ1Q-3vr8qPE6xg-2" value="" style="html=1;points=[];perimeter=orthogonalPerimeter;outlineConnect=0;targetShapes=umlLifeline;portConstraint=eastwest;newEdgeStyle={&quot;edgeStyle&quot;:&quot;elbowEdgeStyle&quot;,&quot;elbow&quot;:&quot;vertical&quot;,&quot;curved&quot;:0,&quot;rounded&quot;:0};" vertex="1" parent="Wys04pJ1Q-3vr8qPE6xg-1">
          <mxGeometry x="45" y="70" width="10" height="190" as="geometry" />
        </mxCell>
        <mxCell id="Wys04pJ1Q-3vr8qPE6xg-3" value="API" style="shape=umlLifeline;perimeter=lifelinePerimeter;whiteSpace=wrap;html=1;container=0;dropTarget=0;collapsible=0;recursiveResize=0;outlineConnect=0;portConstraint=eastwest;newEdgeStyle={&quot;edgeStyle&quot;:&quot;elbowEdgeStyle&quot;,&quot;elbow&quot;:&quot;vertical&quot;,&quot;curved&quot;:0,&quot;rounded&quot;:0};" vertex="1" parent="1">
          <mxGeometry x="329.5" y="10" width="100" height="270" as="geometry" />
        </mxCell>
        <mxCell id="Wys04pJ1Q-3vr8qPE6xg-4" value="" style="html=1;points=[];perimeter=orthogonalPerimeter;outlineConnect=0;targetShapes=umlLifeline;portConstraint=eastwest;newEdgeStyle={&quot;edgeStyle&quot;:&quot;elbowEdgeStyle&quot;,&quot;elbow&quot;:&quot;vertical&quot;,&quot;curved&quot;:0,&quot;rounded&quot;:0};" vertex="1" parent="Wys04pJ1Q-3vr8qPE6xg-3">
          <mxGeometry x="45" y="100" width="10" height="130" as="geometry" />
        </mxCell>
        <mxCell id="Wys04pJ1Q-3vr8qPE6xg-5" value="Milestone&lt;br&gt;Microservice" style="shape=umlLifeline;perimeter=lifelinePerimeter;whiteSpace=wrap;html=1;container=0;dropTarget=0;collapsible=0;recursiveResize=0;outlineConnect=0;portConstraint=eastwest;newEdgeStyle={&quot;edgeStyle&quot;:&quot;elbowEdgeStyle&quot;,&quot;elbow&quot;:&quot;vertical&quot;,&quot;curved&quot;:0,&quot;rounded&quot;:0};" vertex="1" parent="1">
          <mxGeometry x="464.5" y="10" width="100" height="260" as="geometry" />
        </mxCell>
        <mxCell id="Wys04pJ1Q-3vr8qPE6xg-6" value="" style="html=1;points=[];perimeter=orthogonalPerimeter;outlineConnect=0;targetShapes=umlLifeline;portConstraint=eastwest;newEdgeStyle={&quot;edgeStyle&quot;:&quot;elbowEdgeStyle&quot;,&quot;elbow&quot;:&quot;vertical&quot;,&quot;curved&quot;:0,&quot;rounded&quot;:0};" vertex="1" parent="Wys04pJ1Q-3vr8qPE6xg-5">
          <mxGeometry x="45" y="120" width="10" height="90" as="geometry" />
        </mxCell>
        <mxCell id="Wys04pJ1Q-3vr8qPE6xg-7" value="Database" style="shape=umlLifeline;perimeter=lifelinePerimeter;whiteSpace=wrap;html=1;container=0;dropTarget=0;collapsible=0;recursiveResize=0;outlineConnect=0;portConstraint=eastwest;newEdgeStyle={&quot;edgeStyle&quot;:&quot;elbowEdgeStyle&quot;,&quot;elbow&quot;:&quot;vertical&quot;,&quot;curved&quot;:0,&quot;rounded&quot;:0};" vertex="1" parent="1">
          <mxGeometry x="640" y="10" width="100" height="260" as="geometry" />
        </mxCell>
        <mxCell id="Wys04pJ1Q-3vr8qPE6xg-8" value="" style="html=1;points=[];perimeter=orthogonalPerimeter;outlineConnect=0;targetShapes=umlLifeline;portConstraint=eastwest;newEdgeStyle={&quot;edgeStyle&quot;:&quot;elbowEdgeStyle&quot;,&quot;elbow&quot;:&quot;vertical&quot;,&quot;curved&quot;:0,&quot;rounded&quot;:0};" vertex="1" parent="Wys04pJ1Q-3vr8qPE6xg-7">
          <mxGeometry x="45" y="150" width="10" height="50" as="geometry" />
        </mxCell>
        <mxCell id="Wys04pJ1Q-3vr8qPE6xg-9" style="edgeStyle=orthogonalEdgeStyle;rounded=0;orthogonalLoop=1;jettySize=auto;html=1;curved=0;" edge="1" parent="1" source="Wys04pJ1Q-3vr8qPE6xg-11" target="Wys04pJ1Q-3vr8qPE6xg-1">
          <mxGeometry relative="1" as="geometry">
            <mxPoint x="120" y="160" as="targetPoint" />
            <Array as="points">
              <mxPoint x="140" y="100" />
              <mxPoint x="140" y="100" />
            </Array>
          </mxGeometry>
        </mxCell>
        <mxCell id="Wys04pJ1Q-3vr8qPE6xg-10" value="1. Staff nhấp chọn và cập nhật Issue trong&lt;div&gt;Milestone từ danh sách&lt;/div&gt;" style="edgeLabel;html=1;align=center;verticalAlign=middle;resizable=0;points=[];" vertex="1" connectable="0" parent="Wys04pJ1Q-3vr8qPE6xg-9">
          <mxGeometry x="-0.525" y="3" relative="1" as="geometry">
            <mxPoint x="43" y="-17" as="offset" />
          </mxGeometry>
        </mxCell>
        <mxCell id="Wys04pJ1Q-3vr8qPE6xg-11" value="" style="shape=umlLifeline;perimeter=lifelinePerimeter;whiteSpace=wrap;html=1;container=1;dropTarget=0;collapsible=0;recursiveResize=0;outlineConnect=0;portConstraint=eastwest;newEdgeStyle={&quot;curved&quot;:0,&quot;rounded&quot;:0};participant=umlActor;size=40;" vertex="1" parent="1">
          <mxGeometry x="-30" y="10" width="20" height="290" as="geometry" />
        </mxCell>
        <mxCell id="Wys04pJ1Q-3vr8qPE6xg-12" style="edgeStyle=elbowEdgeStyle;rounded=0;orthogonalLoop=1;jettySize=auto;html=1;elbow=vertical;curved=0;" edge="1" parent="1" target="Wys04pJ1Q-3vr8qPE6xg-3">
          <mxGeometry relative="1" as="geometry">
            <mxPoint x="205" y="150" as="sourcePoint" />
            <mxPoint x="339.5" y="150" as="targetPoint" />
          </mxGeometry>
        </mxCell>
        <mxCell id="Wys04pJ1Q-3vr8qPE6xg-13" value="2. Gửi HTTP request update&amp;nbsp;&lt;div&gt;progress milestone đến API&lt;/div&gt;" style="edgeLabel;html=1;align=center;verticalAlign=middle;resizable=0;points=[];" vertex="1" connectable="0" parent="Wys04pJ1Q-3vr8qPE6xg-12">
          <mxGeometry x="-0.6342" y="4" relative="1" as="geometry">
            <mxPoint x="53" y="-26" as="offset" />
          </mxGeometry>
        </mxCell>
        <mxCell id="Wys04pJ1Q-3vr8qPE6xg-14" style="edgeStyle=elbowEdgeStyle;rounded=0;orthogonalLoop=1;jettySize=auto;html=1;elbow=vertical;curved=0;" edge="1" parent="1" target="Wys04pJ1Q-3vr8qPE6xg-6">
          <mxGeometry relative="1" as="geometry">
            <mxPoint x="384.5" y="140" as="sourcePoint" />
            <mxPoint x="509.5" y="140" as="targetPoint" />
            <Array as="points">
              <mxPoint x="439.5" y="160" />
            </Array>
          </mxGeometry>
        </mxCell>
        <mxCell id="Wys04pJ1Q-3vr8qPE6xg-15" value="3.&amp;nbsp; Chuyển tiếp HTTP&amp;nbsp;&lt;div&gt;request đến service&lt;/div&gt;" style="edgeLabel;html=1;align=center;verticalAlign=middle;resizable=0;points=[];" vertex="1" connectable="0" parent="Wys04pJ1Q-3vr8qPE6xg-14">
          <mxGeometry x="-0.5104" y="4" relative="1" as="geometry">
            <mxPoint x="45" y="-26" as="offset" />
          </mxGeometry>
        </mxCell>
        <mxCell id="Wys04pJ1Q-3vr8qPE6xg-16" style="edgeStyle=elbowEdgeStyle;rounded=0;orthogonalLoop=1;jettySize=auto;html=1;elbow=vertical;curved=0;" edge="1" parent="1" target="Wys04pJ1Q-3vr8qPE6xg-7">
          <mxGeometry relative="1" as="geometry">
            <mxPoint x="519.5" y="170" as="sourcePoint" />
            <mxPoint x="654.5" y="170" as="targetPoint" />
          </mxGeometry>
        </mxCell>
        <mxCell id="Wys04pJ1Q-3vr8qPE6xg-17" value="4.Cập nhật process&lt;div&gt;&amp;nbsp;Milestone vào database&lt;div&gt;&lt;div&gt;&lt;br&gt;&lt;/div&gt;&lt;/div&gt;&lt;/div&gt;" style="edgeLabel;html=1;align=center;verticalAlign=middle;resizable=0;points=[];" vertex="1" connectable="0" parent="Wys04pJ1Q-3vr8qPE6xg-16">
          <mxGeometry x="-0.5574" y="3" relative="1" as="geometry">
            <mxPoint x="61" y="-27" as="offset" />
          </mxGeometry>
        </mxCell>
        <mxCell id="Wys04pJ1Q-3vr8qPE6xg-18" style="edgeStyle=elbowEdgeStyle;rounded=0;orthogonalLoop=1;jettySize=auto;html=1;elbow=vertical;curved=0;" edge="1" parent="1" source="Wys04pJ1Q-3vr8qPE6xg-8">
          <mxGeometry relative="1" as="geometry">
            <mxPoint x="654.5" y="200" as="sourcePoint" />
            <mxPoint x="519.5" y="200" as="targetPoint" />
          </mxGeometry>
        </mxCell>
        <mxCell id="Wys04pJ1Q-3vr8qPE6xg-19" value="5. Trả kết quả thành công&amp;nbsp;&lt;div&gt;về cho service&lt;/div&gt;" style="edgeLabel;html=1;align=center;verticalAlign=middle;resizable=0;points=[];" vertex="1" connectable="0" parent="Wys04pJ1Q-3vr8qPE6xg-18">
          <mxGeometry x="0.3541" y="-5" relative="1" as="geometry">
            <mxPoint x="26" y="-10" as="offset" />
          </mxGeometry>
        </mxCell>
        <mxCell id="Wys04pJ1Q-3vr8qPE6xg-20" style="edgeStyle=elbowEdgeStyle;rounded=0;orthogonalLoop=1;jettySize=auto;html=1;elbow=horizontal;curved=0;" edge="1" parent="1">
          <mxGeometry relative="1" as="geometry">
            <mxPoint x="509.5" y="210" as="sourcePoint" />
            <mxPoint x="379" y="210" as="targetPoint" />
          </mxGeometry>
        </mxCell>
        <mxCell id="Wys04pJ1Q-3vr8qPE6xg-21" value="6. Service trả kết quả&lt;div&gt;thành công cho API&lt;/div&gt;" style="edgeLabel;html=1;align=center;verticalAlign=middle;resizable=0;points=[];" vertex="1" connectable="0" parent="Wys04pJ1Q-3vr8qPE6xg-20">
          <mxGeometry x="0.3548" y="-2" relative="1" as="geometry">
            <mxPoint x="18" y="-18" as="offset" />
          </mxGeometry>
        </mxCell>
        <mxCell id="Wys04pJ1Q-3vr8qPE6xg-22" style="edgeStyle=elbowEdgeStyle;rounded=0;orthogonalLoop=1;jettySize=auto;html=1;elbow=vertical;curved=0;" edge="1" parent="1" source="Wys04pJ1Q-3vr8qPE6xg-3">
          <mxGeometry relative="1" as="geometry">
            <mxPoint x="335" y="230" as="sourcePoint" />
            <mxPoint x="199.5" y="230" as="targetPoint" />
          </mxGeometry>
        </mxCell>
        <mxCell id="Wys04pJ1Q-3vr8qPE6xg-23" value="&lt;span style=&quot;color: rgba(0, 0, 0, 0); font-family: monospace; font-size: 0px; text-align: start; background-color: rgb(251, 251, 251);&quot;&gt;%3CmxGraphModel%3E%3Croot%3E%3CmxCell%20id%3D%220%22%2F%3E%3CmxCell%20id%3D%221%22%20parent%3D%220%22%2F%3E%3CmxCell%20id%3D%222%22%20value%3D%226.Tr%E1%BA%A3%20k%E1%BA%BFt%20qu%E1%BA%A3%26amp%3Bnbsp%3B%26lt%3Bdiv%26gt%3Bth%C3%A0nh%20c%C3%B4ng%26lt%3B%2Fdiv%26gt%3B%22%20style%3D%22edgeLabel%3Bhtml%3D1%3Balign%3Dcenter%3BverticalAlign%3Dmiddle%3Bresizable%3D0%3Bpoints%3D%5B%5D%3B%22%20vertex%3D%221%22%20connectable%3D%220%22%20parent%3D%221%22%3E%3CmxGeometry%20x%3D%22400%22%20y%3D%22190%22%20as%3D%22geometry%22%2F%3E%3C%2FmxCell%3E%3C%2Froot%3E%3C%2FmxGraphModel%3E&lt;/span&gt;" style="edgeLabel;html=1;align=center;verticalAlign=middle;resizable=0;points=[];" vertex="1" connectable="0" parent="Wys04pJ1Q-3vr8qPE6xg-22">
          <mxGeometry x="0.231" y="-1" relative="1" as="geometry">
            <mxPoint as="offset" />
          </mxGeometry>
        </mxCell>
        <mxCell id="Wys04pJ1Q-3vr8qPE6xg-24" value="7.Trả kết quả&lt;div&gt;thành công&lt;/div&gt;" style="edgeLabel;html=1;align=center;verticalAlign=middle;resizable=0;points=[];" vertex="1" connectable="0" parent="Wys04pJ1Q-3vr8qPE6xg-22">
          <mxGeometry x="0.1867" y="-3" relative="1" as="geometry">
            <mxPoint x="15" y="-17" as="offset" />
          </mxGeometry>
        </mxCell>
        <mxCell id="Wys04pJ1Q-3vr8qPE6xg-25" style="edgeStyle=elbowEdgeStyle;rounded=0;orthogonalLoop=1;jettySize=auto;html=1;elbow=vertical;curved=0;" edge="1" parent="1">
          <mxGeometry relative="1" as="geometry">
            <mxPoint x="195" y="250" as="sourcePoint" />
            <mxPoint x="-20.5" y="250" as="targetPoint" />
          </mxGeometry>
        </mxCell>
        <mxCell id="Wys04pJ1Q-3vr8qPE6xg-26" value="8.Thông báo cho Staff và&lt;div&gt;hiển thị lại milestone được cập nhật&lt;/div&gt;" style="edgeLabel;html=1;align=center;verticalAlign=middle;resizable=0;points=[];" vertex="1" connectable="0" parent="Wys04pJ1Q-3vr8qPE6xg-25">
          <mxGeometry x="0.3587" y="-2" relative="1" as="geometry">
            <mxPoint x="41" y="-18" as="offset" />
          </mxGeometry>
        </mxCell>
        <mxCell id="Wys04pJ1Q-3vr8qPE6xg-27" value="Staff" style="text;html=1;align=center;verticalAlign=middle;resizable=0;points=[];autosize=1;strokeColor=none;fillColor=none;" vertex="1" parent="1">
          <mxGeometry x="-60" y="20" width="50" height="30" as="geometry" />
        </mxCell>
      </root>
    </mxGraphModel>
  </diagram>
</mxfile>
